<mxfile host="app.diagrams.net" modified="2022-04-09T08:07:49.468Z" agent="5.0 (Windows NT 10.0; Win64; x64) AppleWebKit/537.36 (KHTML, like Gecko) Chrome/98.0.4758.132 YaBrowser/22.3.1.892 Yowser/2.5 Safari/537.36" etag="P_PvdJPNIDk2lt6O-tbE" version="17.4.0" type="github">
  <diagram id="_GBPP5-PmPfEFQqiKfam" name="Page-1">
    <mxGraphModel dx="1673" dy="940" grid="1" gridSize="10" guides="1" tooltips="1" connect="1" arrows="1" fold="1" page="1" pageScale="1" pageWidth="1169" pageHeight="827" background="none" math="0" shadow="0">
      <root>
        <mxCell id="0" />
        <mxCell id="1" parent="0" />
        <mxCell id="doQYq3akADXhrJh_Z-OA-33" value="" style="rounded=0;whiteSpace=wrap;html=1;gradientColor=none;fillColor=default;strokeColor=#666666;container=0;" vertex="1" parent="1">
          <mxGeometry x="48.25" y="59" width="254.25000000000003" height="127.43589743589743" as="geometry" />
        </mxCell>
        <mxCell id="doQYq3akADXhrJh_Z-OA-26" value="" style="endArrow=none;html=1;rounded=0;fillColor=#eeeeee;strokeColor=#999999;" edge="1" parent="1">
          <mxGeometry width="50" height="50" relative="1" as="geometry">
            <mxPoint x="104.75" y="168.23076923076923" as="sourcePoint" />
            <mxPoint x="104.75" y="77.2051282051282" as="targetPoint" />
          </mxGeometry>
        </mxCell>
        <mxCell id="doQYq3akADXhrJh_Z-OA-27" value="" style="endArrow=none;html=1;rounded=0;strokeColor=#999999;" edge="1" parent="1">
          <mxGeometry width="50" height="50" relative="1" as="geometry">
            <mxPoint x="133" y="168.23076923076923" as="sourcePoint" />
            <mxPoint x="133" y="77.2051282051282" as="targetPoint" />
          </mxGeometry>
        </mxCell>
        <mxCell id="doQYq3akADXhrJh_Z-OA-28" value="" style="endArrow=none;html=1;rounded=0;strokeColor=#999999;" edge="1" parent="1">
          <mxGeometry width="50" height="50" relative="1" as="geometry">
            <mxPoint x="161.25" y="168.23076923076923" as="sourcePoint" />
            <mxPoint x="161.25" y="77.2051282051282" as="targetPoint" />
          </mxGeometry>
        </mxCell>
        <mxCell id="doQYq3akADXhrJh_Z-OA-29" value="" style="endArrow=none;html=1;rounded=0;strokeColor=#999999;" edge="1" parent="1">
          <mxGeometry width="50" height="50" relative="1" as="geometry">
            <mxPoint x="189.5" y="168.23076923076923" as="sourcePoint" />
            <mxPoint x="189.5" y="77.2051282051282" as="targetPoint" />
          </mxGeometry>
        </mxCell>
        <mxCell id="doQYq3akADXhrJh_Z-OA-30" value="" style="endArrow=none;html=1;rounded=0;strokeColor=#999999;" edge="1" parent="1">
          <mxGeometry width="50" height="50" relative="1" as="geometry">
            <mxPoint x="217.75" y="168.23076923076923" as="sourcePoint" />
            <mxPoint x="217.75" y="77.2051282051282" as="targetPoint" />
          </mxGeometry>
        </mxCell>
        <mxCell id="doQYq3akADXhrJh_Z-OA-31" value="" style="endArrow=none;html=1;rounded=0;strokeColor=#999999;" edge="1" parent="1">
          <mxGeometry width="50" height="50" relative="1" as="geometry">
            <mxPoint x="246" y="168.23076923076923" as="sourcePoint" />
            <mxPoint x="246" y="77.2051282051282" as="targetPoint" />
          </mxGeometry>
        </mxCell>
        <mxCell id="doQYq3akADXhrJh_Z-OA-32" value="" style="endArrow=none;html=1;rounded=0;strokeColor=#999999;" edge="1" parent="1">
          <mxGeometry width="50" height="50" relative="1" as="geometry">
            <mxPoint x="274.25" y="168.23076923076923" as="sourcePoint" />
            <mxPoint x="274.25" y="77.2051282051282" as="targetPoint" />
          </mxGeometry>
        </mxCell>
        <mxCell id="doQYq3akADXhrJh_Z-OA-34" value="" style="rounded=0;whiteSpace=wrap;html=1;strokeColor=#666666;fillColor=#666666;gradientColor=none;container=0;" vertex="1" parent="1">
          <mxGeometry x="20" y="59" width="28.25" height="127.43589743589743" as="geometry" />
        </mxCell>
        <mxCell id="doQYq3akADXhrJh_Z-OA-25" value="" style="endArrow=none;html=1;rounded=0;strokeColor=#999999;" edge="1" parent="1">
          <mxGeometry width="50" height="50" relative="1" as="geometry">
            <mxPoint x="76.5" y="168.23076923076923" as="sourcePoint" />
            <mxPoint x="76.5" y="77.2051282051282" as="targetPoint" />
          </mxGeometry>
        </mxCell>
        <mxCell id="doQYq3akADXhrJh_Z-OA-5" value="" style="endArrow=none;html=1;rounded=0;exitX=-0.003;exitY=0.149;exitDx=0;exitDy=0;exitPerimeter=0;" edge="1" parent="1">
          <mxGeometry width="50" height="50" relative="1" as="geometry">
            <mxPoint x="48.24999999999997" y="77.20512820512816" as="sourcePoint" />
            <mxPoint x="302.5" y="77.2051282051282" as="targetPoint" />
          </mxGeometry>
        </mxCell>
        <mxCell id="doQYq3akADXhrJh_Z-OA-8" value="" style="endArrow=none;html=1;rounded=0;" edge="1" parent="1">
          <mxGeometry width="50" height="50" relative="1" as="geometry">
            <mxPoint x="48.25" y="95.41025641025641" as="sourcePoint" />
            <mxPoint x="302.5" y="95.41025641025641" as="targetPoint" />
          </mxGeometry>
        </mxCell>
        <mxCell id="doQYq3akADXhrJh_Z-OA-6" value="" style="endArrow=none;html=1;rounded=0;exitX=0;exitY=0.447;exitDx=0;exitDy=0;exitPerimeter=0;" edge="1" parent="1">
          <mxGeometry width="50" height="50" relative="1" as="geometry">
            <mxPoint x="48.25" y="113.6153846153847" as="sourcePoint" />
            <mxPoint x="302.5" y="113.61538461538461" as="targetPoint" />
          </mxGeometry>
        </mxCell>
        <mxCell id="doQYq3akADXhrJh_Z-OA-2" value="" style="endArrow=none;html=1;rounded=0;exitX=0;exitY=0.597;exitDx=0;exitDy=0;exitPerimeter=0;" edge="1" parent="1">
          <mxGeometry width="50" height="50" relative="1" as="geometry">
            <mxPoint x="48.25" y="131.8205128205129" as="sourcePoint" />
            <mxPoint x="302.5" y="131.82051282051282" as="targetPoint" />
          </mxGeometry>
        </mxCell>
        <mxCell id="doQYq3akADXhrJh_Z-OA-7" value="" style="endArrow=none;html=1;rounded=0;exitX=0;exitY=0.75;exitDx=0;exitDy=0;" edge="1" parent="1">
          <mxGeometry width="50" height="50" relative="1" as="geometry">
            <mxPoint x="48.25" y="150.02564102564102" as="sourcePoint" />
            <mxPoint x="302.5" y="150.02564102564102" as="targetPoint" />
          </mxGeometry>
        </mxCell>
        <mxCell id="doQYq3akADXhrJh_Z-OA-21" value="" style="endArrow=none;html=1;rounded=0;entryX=-0.003;entryY=0.895;entryDx=0;entryDy=0;entryPerimeter=0;" edge="1" parent="1">
          <mxGeometry width="50" height="50" relative="1" as="geometry">
            <mxPoint x="302.5" y="168.23076923076923" as="sourcePoint" />
            <mxPoint x="47.61437499999994" y="168.23076923076923" as="targetPoint" />
          </mxGeometry>
        </mxCell>
        <mxCell id="doQYq3akADXhrJh_Z-OA-55" value="" style="ellipse;whiteSpace=wrap;html=1;aspect=fixed;strokeColor=#000000;fillColor=#FFFFFF;gradientColor=none;container=0;" vertex="1" parent="1">
          <mxGeometry x="69.4375" y="122.71794871794872" width="14.125" height="14.125" as="geometry" />
        </mxCell>
        <mxCell id="doQYq3akADXhrJh_Z-OA-75" value="" style="ellipse;whiteSpace=wrap;html=1;aspect=fixed;strokeColor=#000000;fillColor=#FFFFFF;gradientColor=none;container=0;" vertex="1" parent="1">
          <mxGeometry x="97.6875" y="104.51282051282051" width="14.125" height="14.125" as="geometry" />
        </mxCell>
        <mxCell id="doQYq3akADXhrJh_Z-OA-76" value="" style="ellipse;whiteSpace=wrap;html=1;aspect=fixed;strokeColor=#000000;fillColor=#FFFFFF;gradientColor=none;container=0;" vertex="1" parent="1">
          <mxGeometry x="125.9375" y="86.3076923076923" width="14.125" height="14.125" as="geometry" />
        </mxCell>
        <mxCell id="doQYq3akADXhrJh_Z-OA-79" value="" style="ellipse;whiteSpace=wrap;html=1;aspect=fixed;strokeColor=#000000;fillColor=#FFFFFF;gradientColor=none;container=0;" vertex="1" parent="1">
          <mxGeometry x="154.1875" y="68.1025641025641" width="14.125" height="14.125" as="geometry" />
        </mxCell>
        <mxCell id="doQYq3akADXhrJh_Z-OA-101" value="" style="ellipse;whiteSpace=wrap;html=1;aspect=fixed;strokeColor=#000000;fillColor=#FFFFFF;gradientColor=none;container=0;" vertex="1" parent="1">
          <mxGeometry x="182.4375" y="86.3076923076923" width="14.125" height="14.125" as="geometry" />
        </mxCell>
        <mxCell id="doQYq3akADXhrJh_Z-OA-102" value="" style="ellipse;whiteSpace=wrap;html=1;aspect=fixed;strokeColor=#000000;fillColor=#FFFFFF;gradientColor=none;container=0;" vertex="1" parent="1">
          <mxGeometry x="210.6875" y="104.51282051282051" width="14.125" height="14.125" as="geometry" />
        </mxCell>
        <mxCell id="doQYq3akADXhrJh_Z-OA-103" value="" style="ellipse;whiteSpace=wrap;html=1;aspect=fixed;strokeColor=#000000;fillColor=#FFFFFF;gradientColor=none;container=0;" vertex="1" parent="1">
          <mxGeometry x="238.9375" y="122.71794871794872" width="14.125" height="14.125" as="geometry" />
        </mxCell>
        <mxCell id="doQYq3akADXhrJh_Z-OA-104" value="" style="ellipse;whiteSpace=wrap;html=1;aspect=fixed;strokeColor=#000000;fillColor=#FFFFFF;gradientColor=none;container=0;" vertex="1" parent="1">
          <mxGeometry x="267.1875" y="104.51282051282051" width="14.125" height="14.125" as="geometry" />
        </mxCell>
        <mxCell id="doQYq3akADXhrJh_Z-OA-619" value="2" style="text;html=1;strokeColor=none;fillColor=none;align=center;verticalAlign=middle;whiteSpace=wrap;rounded=0;fontColor=#FFFFFF;container=0;" vertex="1" parent="1">
          <mxGeometry x="27.0625" y="68.1025641025641" width="14.125" height="18.205128205128204" as="geometry" />
        </mxCell>
        <mxCell id="doQYq3akADXhrJh_Z-OA-1024" value="&lt;font color=&quot;#ffffff&quot;&gt;3&lt;/font&gt;" style="text;html=1;strokeColor=none;fillColor=none;align=center;verticalAlign=middle;whiteSpace=wrap;rounded=0;fontColor=#666666;container=0;" vertex="1" parent="1">
          <mxGeometry x="27.0625" y="159.12820512820514" width="14.125" height="18.205128205128204" as="geometry" />
        </mxCell>
        <mxCell id="doQYq3akADXhrJh_Z-OA-112" value="" style="rounded=0;whiteSpace=wrap;html=1;gradientColor=none;fillColor=default;strokeColor=#666666;container=0;" vertex="1" parent="1">
          <mxGeometry x="330.75" y="59" width="254.25000000000003" height="127.43589743589743" as="geometry" />
        </mxCell>
        <mxCell id="doQYq3akADXhrJh_Z-OA-113" value="" style="endArrow=none;html=1;rounded=0;fillColor=#eeeeee;strokeColor=#999999;" edge="1" parent="1">
          <mxGeometry width="50" height="50" relative="1" as="geometry">
            <mxPoint x="387.25" y="168.23076923076923" as="sourcePoint" />
            <mxPoint x="387.25" y="77.2051282051282" as="targetPoint" />
          </mxGeometry>
        </mxCell>
        <mxCell id="doQYq3akADXhrJh_Z-OA-114" value="" style="endArrow=none;html=1;rounded=0;strokeColor=#999999;" edge="1" parent="1">
          <mxGeometry width="50" height="50" relative="1" as="geometry">
            <mxPoint x="415.5" y="168.23076923076923" as="sourcePoint" />
            <mxPoint x="415.5" y="77.2051282051282" as="targetPoint" />
          </mxGeometry>
        </mxCell>
        <mxCell id="doQYq3akADXhrJh_Z-OA-115" value="" style="endArrow=none;html=1;rounded=0;strokeColor=#999999;" edge="1" parent="1">
          <mxGeometry width="50" height="50" relative="1" as="geometry">
            <mxPoint x="443.75" y="168.23076923076923" as="sourcePoint" />
            <mxPoint x="443.75" y="77.2051282051282" as="targetPoint" />
          </mxGeometry>
        </mxCell>
        <mxCell id="doQYq3akADXhrJh_Z-OA-116" value="" style="endArrow=none;html=1;rounded=0;strokeColor=#999999;" edge="1" parent="1">
          <mxGeometry width="50" height="50" relative="1" as="geometry">
            <mxPoint x="472" y="168.23076923076923" as="sourcePoint" />
            <mxPoint x="472" y="77.2051282051282" as="targetPoint" />
          </mxGeometry>
        </mxCell>
        <mxCell id="doQYq3akADXhrJh_Z-OA-117" value="" style="endArrow=none;html=1;rounded=0;strokeColor=#999999;" edge="1" parent="1">
          <mxGeometry width="50" height="50" relative="1" as="geometry">
            <mxPoint x="500.25" y="168.23076923076923" as="sourcePoint" />
            <mxPoint x="500.25" y="77.2051282051282" as="targetPoint" />
          </mxGeometry>
        </mxCell>
        <mxCell id="doQYq3akADXhrJh_Z-OA-118" value="" style="endArrow=none;html=1;rounded=0;strokeColor=#999999;" edge="1" parent="1">
          <mxGeometry width="50" height="50" relative="1" as="geometry">
            <mxPoint x="528.5" y="168.23076923076923" as="sourcePoint" />
            <mxPoint x="528.5" y="77.2051282051282" as="targetPoint" />
          </mxGeometry>
        </mxCell>
        <mxCell id="doQYq3akADXhrJh_Z-OA-119" value="" style="endArrow=none;html=1;rounded=0;strokeColor=#999999;" edge="1" parent="1">
          <mxGeometry width="50" height="50" relative="1" as="geometry">
            <mxPoint x="556.75" y="168.23076923076923" as="sourcePoint" />
            <mxPoint x="556.75" y="77.2051282051282" as="targetPoint" />
          </mxGeometry>
        </mxCell>
        <mxCell id="doQYq3akADXhrJh_Z-OA-120" value="" style="rounded=0;whiteSpace=wrap;html=1;strokeColor=#666666;fillColor=#666666;gradientColor=none;container=0;" vertex="1" parent="1">
          <mxGeometry x="302.5" y="59" width="28.25" height="127.43589743589743" as="geometry" />
        </mxCell>
        <mxCell id="doQYq3akADXhrJh_Z-OA-121" value="" style="endArrow=none;html=1;rounded=0;strokeColor=#999999;" edge="1" parent="1">
          <mxGeometry width="50" height="50" relative="1" as="geometry">
            <mxPoint x="359" y="168.23076923076923" as="sourcePoint" />
            <mxPoint x="359" y="77.2051282051282" as="targetPoint" />
          </mxGeometry>
        </mxCell>
        <mxCell id="doQYq3akADXhrJh_Z-OA-122" value="" style="endArrow=none;html=1;rounded=0;exitX=-0.003;exitY=0.149;exitDx=0;exitDy=0;exitPerimeter=0;" edge="1" parent="1">
          <mxGeometry width="50" height="50" relative="1" as="geometry">
            <mxPoint x="330.75" y="77.20512820512816" as="sourcePoint" />
            <mxPoint x="585" y="77.2051282051282" as="targetPoint" />
          </mxGeometry>
        </mxCell>
        <mxCell id="doQYq3akADXhrJh_Z-OA-123" value="" style="endArrow=none;html=1;rounded=0;" edge="1" parent="1">
          <mxGeometry width="50" height="50" relative="1" as="geometry">
            <mxPoint x="330.75" y="95.41025641025641" as="sourcePoint" />
            <mxPoint x="585" y="95.41025641025641" as="targetPoint" />
          </mxGeometry>
        </mxCell>
        <mxCell id="doQYq3akADXhrJh_Z-OA-124" value="" style="endArrow=none;html=1;rounded=0;exitX=0;exitY=0.447;exitDx=0;exitDy=0;exitPerimeter=0;" edge="1" parent="1">
          <mxGeometry width="50" height="50" relative="1" as="geometry">
            <mxPoint x="330.75" y="113.6153846153847" as="sourcePoint" />
            <mxPoint x="585" y="113.61538461538461" as="targetPoint" />
          </mxGeometry>
        </mxCell>
        <mxCell id="doQYq3akADXhrJh_Z-OA-125" value="" style="endArrow=none;html=1;rounded=0;exitX=0;exitY=0.597;exitDx=0;exitDy=0;exitPerimeter=0;" edge="1" parent="1">
          <mxGeometry width="50" height="50" relative="1" as="geometry">
            <mxPoint x="330.75" y="131.8205128205129" as="sourcePoint" />
            <mxPoint x="585" y="131.82051282051282" as="targetPoint" />
          </mxGeometry>
        </mxCell>
        <mxCell id="doQYq3akADXhrJh_Z-OA-126" value="" style="endArrow=none;html=1;rounded=0;exitX=0;exitY=0.75;exitDx=0;exitDy=0;" edge="1" parent="1">
          <mxGeometry width="50" height="50" relative="1" as="geometry">
            <mxPoint x="330.75" y="150.02564102564102" as="sourcePoint" />
            <mxPoint x="585" y="150.02564102564102" as="targetPoint" />
          </mxGeometry>
        </mxCell>
        <mxCell id="doQYq3akADXhrJh_Z-OA-127" value="" style="endArrow=none;html=1;rounded=0;entryX=-0.003;entryY=0.895;entryDx=0;entryDy=0;entryPerimeter=0;" edge="1" parent="1">
          <mxGeometry width="50" height="50" relative="1" as="geometry">
            <mxPoint x="585" y="168.23076923076923" as="sourcePoint" />
            <mxPoint x="330.11437499999994" y="168.23076923076923" as="targetPoint" />
          </mxGeometry>
        </mxCell>
        <mxCell id="doQYq3akADXhrJh_Z-OA-128" value="" style="ellipse;whiteSpace=wrap;html=1;aspect=fixed;strokeColor=#000000;fillColor=#FFFFFF;gradientColor=none;container=0;" vertex="1" parent="1">
          <mxGeometry x="351.9375" y="140.9230769230769" width="14.125" height="14.125" as="geometry" />
        </mxCell>
        <mxCell id="doQYq3akADXhrJh_Z-OA-129" value="" style="ellipse;whiteSpace=wrap;html=1;aspect=fixed;strokeColor=#000000;fillColor=#FFFFFF;gradientColor=none;container=0;" vertex="1" parent="1">
          <mxGeometry x="380.1875" y="104.51282051282051" width="14.125" height="14.125" as="geometry" />
        </mxCell>
        <mxCell id="doQYq3akADXhrJh_Z-OA-130" value="" style="ellipse;whiteSpace=wrap;html=1;aspect=fixed;strokeColor=#000000;fillColor=#FFFFFF;gradientColor=none;container=0;" vertex="1" parent="1">
          <mxGeometry x="408.4375" y="86.3076923076923" width="14.125" height="14.125" as="geometry" />
        </mxCell>
        <mxCell id="doQYq3akADXhrJh_Z-OA-131" value="" style="ellipse;whiteSpace=wrap;html=1;aspect=fixed;strokeColor=#000000;fillColor=#FFFFFF;gradientColor=none;container=0;" vertex="1" parent="1">
          <mxGeometry x="436.6875" y="68.1025641025641" width="14.125" height="14.125" as="geometry" />
        </mxCell>
        <mxCell id="doQYq3akADXhrJh_Z-OA-132" value="" style="ellipse;whiteSpace=wrap;html=1;aspect=fixed;strokeColor=#000000;fillColor=#FFFFFF;gradientColor=none;container=0;" vertex="1" parent="1">
          <mxGeometry x="464.9375" y="86.3076923076923" width="14.125" height="14.125" as="geometry" />
        </mxCell>
        <mxCell id="doQYq3akADXhrJh_Z-OA-133" value="" style="ellipse;whiteSpace=wrap;html=1;aspect=fixed;strokeColor=#000000;fillColor=#FFFFFF;gradientColor=none;container=0;" vertex="1" parent="1">
          <mxGeometry x="493.1875" y="104.51282051282051" width="14.125" height="14.125" as="geometry" />
        </mxCell>
        <mxCell id="doQYq3akADXhrJh_Z-OA-134" value="" style="ellipse;whiteSpace=wrap;html=1;aspect=fixed;strokeColor=#000000;fillColor=#FFFFFF;gradientColor=none;container=0;" vertex="1" parent="1">
          <mxGeometry x="521.4375" y="122.71794871794872" width="14.125" height="14.125" as="geometry" />
        </mxCell>
        <mxCell id="doQYq3akADXhrJh_Z-OA-135" value="" style="ellipse;whiteSpace=wrap;html=1;aspect=fixed;strokeColor=#000000;fillColor=#FFFFFF;gradientColor=none;container=0;" vertex="1" parent="1">
          <mxGeometry x="549.6875" y="104.51282051282051" width="14.125" height="14.125" as="geometry" />
        </mxCell>
        <mxCell id="doQYq3akADXhrJh_Z-OA-1025" value="4" style="text;html=1;strokeColor=none;fillColor=none;align=center;verticalAlign=middle;whiteSpace=wrap;rounded=0;fontColor=#FFFFFF;container=0;" vertex="1" parent="1">
          <mxGeometry x="309.5625" y="68.1025641025641" width="14.125" height="18.205128205128204" as="geometry" />
        </mxCell>
        <mxCell id="doQYq3akADXhrJh_Z-OA-1026" value="5" style="text;html=1;strokeColor=none;fillColor=none;align=center;verticalAlign=middle;whiteSpace=wrap;rounded=0;fontColor=#FFFFFF;container=0;" vertex="1" parent="1">
          <mxGeometry x="309.5625" y="159.12820512820514" width="14.125" height="18.205128205128204" as="geometry" />
        </mxCell>
        <mxCell id="doQYq3akADXhrJh_Z-OA-183" value="" style="rounded=0;whiteSpace=wrap;html=1;gradientColor=none;fillColor=default;strokeColor=#666666;container=0;" vertex="1" parent="1">
          <mxGeometry x="613.25" y="59" width="254.25000000000003" height="127.43589743589743" as="geometry" />
        </mxCell>
        <mxCell id="doQYq3akADXhrJh_Z-OA-184" value="" style="endArrow=none;html=1;rounded=0;fillColor=#eeeeee;strokeColor=#CCCCCC;" edge="1" parent="1">
          <mxGeometry width="50" height="50" relative="1" as="geometry">
            <mxPoint x="669.75" y="168.23076923076923" as="sourcePoint" />
            <mxPoint x="669.75" y="77.2051282051282" as="targetPoint" />
          </mxGeometry>
        </mxCell>
        <mxCell id="doQYq3akADXhrJh_Z-OA-185" value="" style="endArrow=none;html=1;rounded=0;strokeColor=#999999;" edge="1" parent="1">
          <mxGeometry width="50" height="50" relative="1" as="geometry">
            <mxPoint x="698" y="168.23076923076923" as="sourcePoint" />
            <mxPoint x="698" y="77.2051282051282" as="targetPoint" />
          </mxGeometry>
        </mxCell>
        <mxCell id="doQYq3akADXhrJh_Z-OA-186" value="" style="endArrow=none;html=1;rounded=0;strokeColor=#999999;" edge="1" parent="1">
          <mxGeometry width="50" height="50" relative="1" as="geometry">
            <mxPoint x="726.25" y="168.23076923076923" as="sourcePoint" />
            <mxPoint x="726.25" y="77.2051282051282" as="targetPoint" />
          </mxGeometry>
        </mxCell>
        <mxCell id="doQYq3akADXhrJh_Z-OA-187" value="" style="endArrow=none;html=1;rounded=0;strokeColor=#999999;" edge="1" parent="1">
          <mxGeometry width="50" height="50" relative="1" as="geometry">
            <mxPoint x="754.5" y="168.23076923076923" as="sourcePoint" />
            <mxPoint x="754.5" y="77.2051282051282" as="targetPoint" />
          </mxGeometry>
        </mxCell>
        <mxCell id="doQYq3akADXhrJh_Z-OA-188" value="" style="endArrow=none;html=1;rounded=0;strokeColor=#999999;" edge="1" parent="1">
          <mxGeometry width="50" height="50" relative="1" as="geometry">
            <mxPoint x="782.75" y="168.23076923076923" as="sourcePoint" />
            <mxPoint x="782.75" y="77.2051282051282" as="targetPoint" />
          </mxGeometry>
        </mxCell>
        <mxCell id="doQYq3akADXhrJh_Z-OA-189" value="" style="endArrow=none;html=1;rounded=0;strokeColor=#999999;" edge="1" parent="1">
          <mxGeometry width="50" height="50" relative="1" as="geometry">
            <mxPoint x="811" y="168.23076923076923" as="sourcePoint" />
            <mxPoint x="811" y="77.2051282051282" as="targetPoint" />
          </mxGeometry>
        </mxCell>
        <mxCell id="doQYq3akADXhrJh_Z-OA-190" value="" style="endArrow=none;html=1;rounded=0;strokeColor=#999999;" edge="1" parent="1">
          <mxGeometry width="50" height="50" relative="1" as="geometry">
            <mxPoint x="839.25" y="168.23076923076923" as="sourcePoint" />
            <mxPoint x="839.25" y="77.2051282051282" as="targetPoint" />
          </mxGeometry>
        </mxCell>
        <mxCell id="doQYq3akADXhrJh_Z-OA-191" value="" style="rounded=0;whiteSpace=wrap;html=1;strokeColor=#666666;fillColor=#666666;gradientColor=none;container=0;" vertex="1" parent="1">
          <mxGeometry x="585" y="59" width="28.25" height="127.43589743589743" as="geometry" />
        </mxCell>
        <mxCell id="doQYq3akADXhrJh_Z-OA-192" value="" style="endArrow=none;html=1;rounded=0;strokeColor=#CCCCCC;" edge="1" parent="1">
          <mxGeometry width="50" height="50" relative="1" as="geometry">
            <mxPoint x="641.5" y="168.23076923076923" as="sourcePoint" />
            <mxPoint x="641.5" y="77.2051282051282" as="targetPoint" />
          </mxGeometry>
        </mxCell>
        <mxCell id="doQYq3akADXhrJh_Z-OA-193" value="" style="endArrow=none;html=1;rounded=0;exitX=-0.003;exitY=0.149;exitDx=0;exitDy=0;exitPerimeter=0;" edge="1" parent="1">
          <mxGeometry width="50" height="50" relative="1" as="geometry">
            <mxPoint x="613.25" y="77.20512820512816" as="sourcePoint" />
            <mxPoint x="867.5" y="77.2051282051282" as="targetPoint" />
          </mxGeometry>
        </mxCell>
        <mxCell id="doQYq3akADXhrJh_Z-OA-194" value="" style="endArrow=none;html=1;rounded=0;" edge="1" parent="1">
          <mxGeometry width="50" height="50" relative="1" as="geometry">
            <mxPoint x="613.25" y="95.41025641025641" as="sourcePoint" />
            <mxPoint x="867.5" y="95.41025641025641" as="targetPoint" />
          </mxGeometry>
        </mxCell>
        <mxCell id="doQYq3akADXhrJh_Z-OA-195" value="" style="endArrow=none;html=1;rounded=0;exitX=0;exitY=0.447;exitDx=0;exitDy=0;exitPerimeter=0;" edge="1" parent="1">
          <mxGeometry width="50" height="50" relative="1" as="geometry">
            <mxPoint x="613.25" y="113.6153846153847" as="sourcePoint" />
            <mxPoint x="867.5" y="113.61538461538461" as="targetPoint" />
          </mxGeometry>
        </mxCell>
        <mxCell id="doQYq3akADXhrJh_Z-OA-196" value="" style="endArrow=none;html=1;rounded=0;exitX=0;exitY=0.597;exitDx=0;exitDy=0;exitPerimeter=0;" edge="1" parent="1">
          <mxGeometry width="50" height="50" relative="1" as="geometry">
            <mxPoint x="613.25" y="131.8205128205129" as="sourcePoint" />
            <mxPoint x="867.5" y="131.82051282051282" as="targetPoint" />
          </mxGeometry>
        </mxCell>
        <mxCell id="doQYq3akADXhrJh_Z-OA-197" value="" style="endArrow=none;html=1;rounded=0;exitX=0;exitY=0.75;exitDx=0;exitDy=0;" edge="1" parent="1">
          <mxGeometry width="50" height="50" relative="1" as="geometry">
            <mxPoint x="613.25" y="150.02564102564102" as="sourcePoint" />
            <mxPoint x="867.5" y="150.02564102564102" as="targetPoint" />
          </mxGeometry>
        </mxCell>
        <mxCell id="doQYq3akADXhrJh_Z-OA-198" value="" style="endArrow=none;html=1;rounded=0;entryX=-0.003;entryY=0.895;entryDx=0;entryDy=0;entryPerimeter=0;" edge="1" parent="1">
          <mxGeometry width="50" height="50" relative="1" as="geometry">
            <mxPoint x="867.5" y="168.23076923076923" as="sourcePoint" />
            <mxPoint x="612.6143749999999" y="168.23076923076923" as="targetPoint" />
          </mxGeometry>
        </mxCell>
        <mxCell id="doQYq3akADXhrJh_Z-OA-201" value="" style="ellipse;whiteSpace=wrap;html=1;aspect=fixed;strokeColor=#000000;fillColor=#FFFFFF;gradientColor=none;container=0;" vertex="1" parent="1">
          <mxGeometry x="690.9375" y="86.3076923076923" width="14.125" height="14.125" as="geometry" />
        </mxCell>
        <mxCell id="doQYq3akADXhrJh_Z-OA-202" value="" style="ellipse;whiteSpace=wrap;html=1;aspect=fixed;strokeColor=#000000;fillColor=#FFFFFF;gradientColor=none;container=0;" vertex="1" parent="1">
          <mxGeometry x="719.1875" y="68.1025641025641" width="14.125" height="14.125" as="geometry" />
        </mxCell>
        <mxCell id="doQYq3akADXhrJh_Z-OA-203" value="" style="ellipse;whiteSpace=wrap;html=1;aspect=fixed;strokeColor=#000000;fillColor=#FFFFFF;gradientColor=none;container=0;" vertex="1" parent="1">
          <mxGeometry x="747.4375" y="86.3076923076923" width="14.125" height="14.125" as="geometry" />
        </mxCell>
        <mxCell id="doQYq3akADXhrJh_Z-OA-204" value="" style="ellipse;whiteSpace=wrap;html=1;aspect=fixed;strokeColor=#000000;fillColor=#FFFFFF;gradientColor=none;container=0;" vertex="1" parent="1">
          <mxGeometry x="775.6875" y="104.51282051282051" width="14.125" height="14.125" as="geometry" />
        </mxCell>
        <mxCell id="doQYq3akADXhrJh_Z-OA-205" value="" style="ellipse;whiteSpace=wrap;html=1;aspect=fixed;strokeColor=#000000;fillColor=#FFFFFF;gradientColor=none;container=0;" vertex="1" parent="1">
          <mxGeometry x="803.9375" y="122.71794871794872" width="14.125" height="14.125" as="geometry" />
        </mxCell>
        <mxCell id="doQYq3akADXhrJh_Z-OA-206" value="" style="ellipse;whiteSpace=wrap;html=1;aspect=fixed;strokeColor=#000000;fillColor=#FFFFFF;gradientColor=none;container=0;" vertex="1" parent="1">
          <mxGeometry x="832.1875" y="104.51282051282051" width="14.125" height="14.125" as="geometry" />
        </mxCell>
        <mxCell id="doQYq3akADXhrJh_Z-OA-1027" value="6" style="text;html=1;strokeColor=none;fillColor=none;align=center;verticalAlign=middle;whiteSpace=wrap;rounded=0;fontColor=#FFFFFF;container=0;" vertex="1" parent="1">
          <mxGeometry x="592.0625" y="68.1025641025641" width="14.125" height="18.205128205128204" as="geometry" />
        </mxCell>
        <mxCell id="doQYq3akADXhrJh_Z-OA-208" value="" style="rounded=0;whiteSpace=wrap;html=1;gradientColor=none;fillColor=default;strokeColor=#666666;container=0;" vertex="1" parent="1">
          <mxGeometry x="895.75" y="59" width="254.25000000000003" height="127.43589743589743" as="geometry" />
        </mxCell>
        <mxCell id="doQYq3akADXhrJh_Z-OA-209" value="" style="endArrow=none;html=1;rounded=0;fillColor=#eeeeee;strokeColor=#999999;" edge="1" parent="1">
          <mxGeometry width="50" height="50" relative="1" as="geometry">
            <mxPoint x="952.25" y="168.23076923076923" as="sourcePoint" />
            <mxPoint x="952.25" y="77.2051282051282" as="targetPoint" />
          </mxGeometry>
        </mxCell>
        <mxCell id="doQYq3akADXhrJh_Z-OA-210" value="" style="endArrow=none;html=1;rounded=0;strokeColor=#999999;" edge="1" parent="1">
          <mxGeometry width="50" height="50" relative="1" as="geometry">
            <mxPoint x="980.5" y="168.23076923076923" as="sourcePoint" />
            <mxPoint x="980.5" y="77.2051282051282" as="targetPoint" />
          </mxGeometry>
        </mxCell>
        <mxCell id="doQYq3akADXhrJh_Z-OA-211" value="" style="endArrow=none;html=1;rounded=0;strokeColor=#999999;" edge="1" parent="1">
          <mxGeometry width="50" height="50" relative="1" as="geometry">
            <mxPoint x="1008.75" y="168.23076923076923" as="sourcePoint" />
            <mxPoint x="1008.75" y="77.2051282051282" as="targetPoint" />
          </mxGeometry>
        </mxCell>
        <mxCell id="doQYq3akADXhrJh_Z-OA-212" value="" style="endArrow=none;html=1;rounded=0;strokeColor=#999999;" edge="1" parent="1">
          <mxGeometry width="50" height="50" relative="1" as="geometry">
            <mxPoint x="1037" y="168.23076923076923" as="sourcePoint" />
            <mxPoint x="1037" y="77.2051282051282" as="targetPoint" />
          </mxGeometry>
        </mxCell>
        <mxCell id="doQYq3akADXhrJh_Z-OA-213" value="" style="endArrow=none;html=1;rounded=0;strokeColor=#999999;" edge="1" parent="1">
          <mxGeometry width="50" height="50" relative="1" as="geometry">
            <mxPoint x="1065.25" y="168.23076923076923" as="sourcePoint" />
            <mxPoint x="1065.25" y="77.2051282051282" as="targetPoint" />
          </mxGeometry>
        </mxCell>
        <mxCell id="doQYq3akADXhrJh_Z-OA-214" value="" style="endArrow=none;html=1;rounded=0;strokeColor=#999999;" edge="1" parent="1">
          <mxGeometry width="50" height="50" relative="1" as="geometry">
            <mxPoint x="1093.5" y="168.23076923076923" as="sourcePoint" />
            <mxPoint x="1093.5" y="77.2051282051282" as="targetPoint" />
          </mxGeometry>
        </mxCell>
        <mxCell id="doQYq3akADXhrJh_Z-OA-215" value="" style="endArrow=none;html=1;rounded=0;strokeColor=#999999;" edge="1" parent="1">
          <mxGeometry width="50" height="50" relative="1" as="geometry">
            <mxPoint x="1121.75" y="168.23076923076923" as="sourcePoint" />
            <mxPoint x="1121.75" y="77.2051282051282" as="targetPoint" />
          </mxGeometry>
        </mxCell>
        <mxCell id="doQYq3akADXhrJh_Z-OA-216" value="" style="rounded=0;whiteSpace=wrap;html=1;strokeColor=#666666;fillColor=#666666;gradientColor=none;container=0;" vertex="1" parent="1">
          <mxGeometry x="867.5" y="59" width="28.25" height="127.43589743589743" as="geometry" />
        </mxCell>
        <mxCell id="doQYq3akADXhrJh_Z-OA-217" value="" style="endArrow=none;html=1;rounded=0;strokeColor=#999999;" edge="1" parent="1">
          <mxGeometry width="50" height="50" relative="1" as="geometry">
            <mxPoint x="924" y="168.23076923076923" as="sourcePoint" />
            <mxPoint x="924" y="77.2051282051282" as="targetPoint" />
          </mxGeometry>
        </mxCell>
        <mxCell id="doQYq3akADXhrJh_Z-OA-218" value="" style="endArrow=none;html=1;rounded=0;exitX=-0.003;exitY=0.149;exitDx=0;exitDy=0;exitPerimeter=0;" edge="1" parent="1">
          <mxGeometry width="50" height="50" relative="1" as="geometry">
            <mxPoint x="895.75" y="77.20512820512816" as="sourcePoint" />
            <mxPoint x="1150" y="77.2051282051282" as="targetPoint" />
          </mxGeometry>
        </mxCell>
        <mxCell id="doQYq3akADXhrJh_Z-OA-219" value="" style="endArrow=none;html=1;rounded=0;" edge="1" parent="1">
          <mxGeometry width="50" height="50" relative="1" as="geometry">
            <mxPoint x="895.75" y="95.41025641025641" as="sourcePoint" />
            <mxPoint x="1150" y="95.41025641025641" as="targetPoint" />
          </mxGeometry>
        </mxCell>
        <mxCell id="doQYq3akADXhrJh_Z-OA-220" value="" style="endArrow=none;html=1;rounded=0;exitX=0;exitY=0.447;exitDx=0;exitDy=0;exitPerimeter=0;" edge="1" parent="1">
          <mxGeometry width="50" height="50" relative="1" as="geometry">
            <mxPoint x="895.75" y="113.6153846153847" as="sourcePoint" />
            <mxPoint x="1150" y="113.61538461538461" as="targetPoint" />
          </mxGeometry>
        </mxCell>
        <mxCell id="doQYq3akADXhrJh_Z-OA-221" value="" style="endArrow=none;html=1;rounded=0;exitX=0;exitY=0.597;exitDx=0;exitDy=0;exitPerimeter=0;" edge="1" parent="1">
          <mxGeometry width="50" height="50" relative="1" as="geometry">
            <mxPoint x="895.75" y="131.8205128205129" as="sourcePoint" />
            <mxPoint x="1150" y="131.82051282051282" as="targetPoint" />
          </mxGeometry>
        </mxCell>
        <mxCell id="doQYq3akADXhrJh_Z-OA-222" value="" style="endArrow=none;html=1;rounded=0;exitX=0;exitY=0.75;exitDx=0;exitDy=0;" edge="1" parent="1">
          <mxGeometry width="50" height="50" relative="1" as="geometry">
            <mxPoint x="895.75" y="150.02564102564102" as="sourcePoint" />
            <mxPoint x="1150" y="150.02564102564102" as="targetPoint" />
          </mxGeometry>
        </mxCell>
        <mxCell id="doQYq3akADXhrJh_Z-OA-223" value="" style="endArrow=none;html=1;rounded=0;entryX=-0.003;entryY=0.895;entryDx=0;entryDy=0;entryPerimeter=0;" edge="1" parent="1">
          <mxGeometry width="50" height="50" relative="1" as="geometry">
            <mxPoint x="1150" y="168.23076923076923" as="sourcePoint" />
            <mxPoint x="895.1143749999999" y="168.23076923076923" as="targetPoint" />
          </mxGeometry>
        </mxCell>
        <mxCell id="doQYq3akADXhrJh_Z-OA-224" value="" style="ellipse;whiteSpace=wrap;html=1;aspect=fixed;strokeColor=#000000;fillColor=#FFFFFF;gradientColor=none;container=0;" vertex="1" parent="1">
          <mxGeometry x="916.9375" y="159.12820512820514" width="14.125" height="14.125" as="geometry" />
        </mxCell>
        <mxCell id="doQYq3akADXhrJh_Z-OA-225" value="" style="ellipse;whiteSpace=wrap;html=1;aspect=fixed;strokeColor=#000000;fillColor=#FFFFFF;gradientColor=none;container=0;" vertex="1" parent="1">
          <mxGeometry x="945.1875" y="104.51282051282051" width="14.125" height="14.125" as="geometry" />
        </mxCell>
        <mxCell id="doQYq3akADXhrJh_Z-OA-226" value="" style="ellipse;whiteSpace=wrap;html=1;aspect=fixed;strokeColor=#000000;fillColor=#FFFFFF;gradientColor=none;container=0;" vertex="1" parent="1">
          <mxGeometry x="973.4375" y="86.3076923076923" width="14.125" height="14.125" as="geometry" />
        </mxCell>
        <mxCell id="doQYq3akADXhrJh_Z-OA-227" value="" style="ellipse;whiteSpace=wrap;html=1;aspect=fixed;strokeColor=#000000;fillColor=#FFFFFF;gradientColor=none;container=0;" vertex="1" parent="1">
          <mxGeometry x="1001.6875" y="68.1025641025641" width="14.125" height="14.125" as="geometry" />
        </mxCell>
        <mxCell id="doQYq3akADXhrJh_Z-OA-228" value="" style="ellipse;whiteSpace=wrap;html=1;aspect=fixed;strokeColor=#000000;fillColor=#FFFFFF;gradientColor=none;container=0;" vertex="1" parent="1">
          <mxGeometry x="1029.9375" y="140.9230769230769" width="14.125" height="14.125" as="geometry" />
        </mxCell>
        <mxCell id="doQYq3akADXhrJh_Z-OA-229" value="" style="ellipse;whiteSpace=wrap;html=1;aspect=fixed;strokeColor=#000000;fillColor=#FFFFFF;gradientColor=none;container=0;" vertex="1" parent="1">
          <mxGeometry x="1058.1875" y="104.51282051282051" width="14.125" height="14.125" as="geometry" />
        </mxCell>
        <mxCell id="doQYq3akADXhrJh_Z-OA-230" value="" style="ellipse;whiteSpace=wrap;html=1;aspect=fixed;strokeColor=#000000;fillColor=#FFFFFF;gradientColor=none;container=0;" vertex="1" parent="1">
          <mxGeometry x="1086.4375" y="86.3076923076923" width="14.125" height="14.125" as="geometry" />
        </mxCell>
        <mxCell id="doQYq3akADXhrJh_Z-OA-231" value="" style="ellipse;whiteSpace=wrap;html=1;aspect=fixed;strokeColor=#000000;fillColor=#FFFFFF;gradientColor=none;container=0;" vertex="1" parent="1">
          <mxGeometry x="1114.6875" y="68.1025641025641" width="14.125" height="14.125" as="geometry" />
        </mxCell>
        <mxCell id="doQYq3akADXhrJh_Z-OA-1028" value="7" style="text;html=1;strokeColor=none;fillColor=none;align=center;verticalAlign=middle;whiteSpace=wrap;rounded=0;fontColor=#FFFFFF;container=0;" vertex="1" parent="1">
          <mxGeometry x="874.5625" y="68.1025641025641" width="14.125" height="18.205128205128204" as="geometry" />
        </mxCell>
        <mxCell id="doQYq3akADXhrJh_Z-OA-233" value="" style="rounded=0;whiteSpace=wrap;html=1;gradientColor=none;fillColor=default;strokeColor=#666666;container=0;" vertex="1" parent="1">
          <mxGeometry x="48.25" y="204.64102564102564" width="254.25000000000003" height="127.43589743589743" as="geometry" />
        </mxCell>
        <mxCell id="doQYq3akADXhrJh_Z-OA-234" value="" style="endArrow=none;html=1;rounded=0;fillColor=#eeeeee;strokeColor=#999999;" edge="1" parent="1">
          <mxGeometry width="50" height="50" relative="1" as="geometry">
            <mxPoint x="104.75" y="313.87179487179486" as="sourcePoint" />
            <mxPoint x="104.75" y="222.84615384615384" as="targetPoint" />
          </mxGeometry>
        </mxCell>
        <mxCell id="doQYq3akADXhrJh_Z-OA-235" value="" style="endArrow=none;html=1;rounded=0;strokeColor=#999999;" edge="1" parent="1">
          <mxGeometry width="50" height="50" relative="1" as="geometry">
            <mxPoint x="133" y="313.87179487179486" as="sourcePoint" />
            <mxPoint x="133" y="222.84615384615384" as="targetPoint" />
          </mxGeometry>
        </mxCell>
        <mxCell id="doQYq3akADXhrJh_Z-OA-236" value="" style="endArrow=none;html=1;rounded=0;strokeColor=#999999;" edge="1" parent="1">
          <mxGeometry width="50" height="50" relative="1" as="geometry">
            <mxPoint x="161.25" y="313.87179487179486" as="sourcePoint" />
            <mxPoint x="161.25" y="222.84615384615384" as="targetPoint" />
          </mxGeometry>
        </mxCell>
        <mxCell id="doQYq3akADXhrJh_Z-OA-237" value="" style="endArrow=none;html=1;rounded=0;strokeColor=#999999;" edge="1" parent="1">
          <mxGeometry width="50" height="50" relative="1" as="geometry">
            <mxPoint x="189.5" y="313.87179487179486" as="sourcePoint" />
            <mxPoint x="189.5" y="222.84615384615384" as="targetPoint" />
          </mxGeometry>
        </mxCell>
        <mxCell id="doQYq3akADXhrJh_Z-OA-238" value="" style="endArrow=none;html=1;rounded=0;strokeColor=#999999;" edge="1" parent="1">
          <mxGeometry width="50" height="50" relative="1" as="geometry">
            <mxPoint x="217.75" y="313.87179487179486" as="sourcePoint" />
            <mxPoint x="217.75" y="222.84615384615384" as="targetPoint" />
          </mxGeometry>
        </mxCell>
        <mxCell id="doQYq3akADXhrJh_Z-OA-239" value="" style="endArrow=none;html=1;rounded=0;strokeColor=#999999;" edge="1" parent="1">
          <mxGeometry width="50" height="50" relative="1" as="geometry">
            <mxPoint x="246" y="313.87179487179486" as="sourcePoint" />
            <mxPoint x="246" y="222.84615384615384" as="targetPoint" />
          </mxGeometry>
        </mxCell>
        <mxCell id="doQYq3akADXhrJh_Z-OA-240" value="" style="endArrow=none;html=1;rounded=0;strokeColor=#999999;" edge="1" parent="1">
          <mxGeometry width="50" height="50" relative="1" as="geometry">
            <mxPoint x="274.25" y="313.87179487179486" as="sourcePoint" />
            <mxPoint x="274.25" y="222.84615384615384" as="targetPoint" />
          </mxGeometry>
        </mxCell>
        <mxCell id="doQYq3akADXhrJh_Z-OA-241" value="" style="rounded=0;whiteSpace=wrap;html=1;strokeColor=#666666;fillColor=#666666;gradientColor=none;container=0;" vertex="1" parent="1">
          <mxGeometry x="20" y="204.64102564102564" width="28.25" height="127.43589743589743" as="geometry" />
        </mxCell>
        <mxCell id="doQYq3akADXhrJh_Z-OA-242" value="" style="endArrow=none;html=1;rounded=0;strokeColor=#999999;" edge="1" parent="1">
          <mxGeometry width="50" height="50" relative="1" as="geometry">
            <mxPoint x="76.5" y="313.87179487179486" as="sourcePoint" />
            <mxPoint x="76.5" y="222.84615384615384" as="targetPoint" />
          </mxGeometry>
        </mxCell>
        <mxCell id="doQYq3akADXhrJh_Z-OA-243" value="" style="endArrow=none;html=1;rounded=0;exitX=-0.003;exitY=0.149;exitDx=0;exitDy=0;exitPerimeter=0;" edge="1" parent="1">
          <mxGeometry width="50" height="50" relative="1" as="geometry">
            <mxPoint x="48.24999999999997" y="222.8461538461538" as="sourcePoint" />
            <mxPoint x="302.5" y="222.84615384615384" as="targetPoint" />
          </mxGeometry>
        </mxCell>
        <mxCell id="doQYq3akADXhrJh_Z-OA-244" value="" style="endArrow=none;html=1;rounded=0;" edge="1" parent="1">
          <mxGeometry width="50" height="50" relative="1" as="geometry">
            <mxPoint x="48.25" y="241.05128205128204" as="sourcePoint" />
            <mxPoint x="302.5" y="241.05128205128204" as="targetPoint" />
          </mxGeometry>
        </mxCell>
        <mxCell id="doQYq3akADXhrJh_Z-OA-245" value="" style="endArrow=none;html=1;rounded=0;exitX=0;exitY=0.447;exitDx=0;exitDy=0;exitPerimeter=0;" edge="1" parent="1">
          <mxGeometry width="50" height="50" relative="1" as="geometry">
            <mxPoint x="48.25" y="259.25641025641033" as="sourcePoint" />
            <mxPoint x="302.5" y="259.2564102564103" as="targetPoint" />
          </mxGeometry>
        </mxCell>
        <mxCell id="doQYq3akADXhrJh_Z-OA-246" value="" style="endArrow=none;html=1;rounded=0;exitX=0;exitY=0.597;exitDx=0;exitDy=0;exitPerimeter=0;" edge="1" parent="1">
          <mxGeometry width="50" height="50" relative="1" as="geometry">
            <mxPoint x="48.25" y="277.46153846153857" as="sourcePoint" />
            <mxPoint x="302.5" y="277.46153846153845" as="targetPoint" />
          </mxGeometry>
        </mxCell>
        <mxCell id="doQYq3akADXhrJh_Z-OA-247" value="" style="endArrow=none;html=1;rounded=0;exitX=0;exitY=0.75;exitDx=0;exitDy=0;" edge="1" parent="1">
          <mxGeometry width="50" height="50" relative="1" as="geometry">
            <mxPoint x="48.25" y="295.66666666666663" as="sourcePoint" />
            <mxPoint x="302.5" y="295.66666666666663" as="targetPoint" />
          </mxGeometry>
        </mxCell>
        <mxCell id="doQYq3akADXhrJh_Z-OA-248" value="" style="endArrow=none;html=1;rounded=0;entryX=-0.003;entryY=0.895;entryDx=0;entryDy=0;entryPerimeter=0;" edge="1" parent="1">
          <mxGeometry width="50" height="50" relative="1" as="geometry">
            <mxPoint x="302.5" y="313.87179487179486" as="sourcePoint" />
            <mxPoint x="47.61437499999994" y="313.87179487179486" as="targetPoint" />
          </mxGeometry>
        </mxCell>
        <mxCell id="doQYq3akADXhrJh_Z-OA-249" value="" style="ellipse;whiteSpace=wrap;html=1;aspect=fixed;strokeColor=#000000;fillColor=#FFFFFF;gradientColor=none;container=0;" vertex="1" parent="1">
          <mxGeometry x="69.4375" y="286.56410256410254" width="14.125" height="14.125" as="geometry" />
        </mxCell>
        <mxCell id="doQYq3akADXhrJh_Z-OA-250" value="" style="ellipse;whiteSpace=wrap;html=1;aspect=fixed;strokeColor=#000000;fillColor=#FFFFFF;gradientColor=none;container=0;" vertex="1" parent="1">
          <mxGeometry x="97.6875" y="250.15384615384613" width="14.125" height="14.125" as="geometry" />
        </mxCell>
        <mxCell id="doQYq3akADXhrJh_Z-OA-251" value="" style="ellipse;whiteSpace=wrap;html=1;aspect=fixed;strokeColor=#000000;fillColor=#FFFFFF;gradientColor=none;container=0;" vertex="1" parent="1">
          <mxGeometry x="125.9375" y="231.94871794871796" width="14.125" height="14.125" as="geometry" />
        </mxCell>
        <mxCell id="doQYq3akADXhrJh_Z-OA-252" value="" style="ellipse;whiteSpace=wrap;html=1;aspect=fixed;strokeColor=#000000;fillColor=#FFFFFF;gradientColor=none;container=0;" vertex="1" parent="1">
          <mxGeometry x="154.1875" y="213.74358974358972" width="14.125" height="14.125" as="geometry" />
        </mxCell>
        <mxCell id="doQYq3akADXhrJh_Z-OA-253" value="" style="ellipse;whiteSpace=wrap;html=1;aspect=fixed;strokeColor=#000000;fillColor=#FFFFFF;gradientColor=none;container=0;" vertex="1" parent="1">
          <mxGeometry x="182.4375" y="231.94871794871796" width="14.125" height="14.125" as="geometry" />
        </mxCell>
        <mxCell id="doQYq3akADXhrJh_Z-OA-254" value="" style="ellipse;whiteSpace=wrap;html=1;aspect=fixed;strokeColor=#000000;fillColor=#FFFFFF;gradientColor=none;container=0;" vertex="1" parent="1">
          <mxGeometry x="210.6875" y="250.15384615384613" width="14.125" height="14.125" as="geometry" />
        </mxCell>
        <mxCell id="doQYq3akADXhrJh_Z-OA-255" value="" style="ellipse;whiteSpace=wrap;html=1;aspect=fixed;strokeColor=#000000;fillColor=#FFFFFF;gradientColor=none;container=0;" vertex="1" parent="1">
          <mxGeometry x="238.9375" y="286.56410256410254" width="14.125" height="14.125" as="geometry" />
        </mxCell>
        <mxCell id="doQYq3akADXhrJh_Z-OA-256" value="" style="ellipse;whiteSpace=wrap;html=1;aspect=fixed;strokeColor=#000000;fillColor=#FFFFFF;gradientColor=none;container=0;" vertex="1" parent="1">
          <mxGeometry x="267.1875" y="213.74358974358972" width="14.125" height="14.125" as="geometry" />
        </mxCell>
        <mxCell id="doQYq3akADXhrJh_Z-OA-1029" value="8" style="text;html=1;strokeColor=none;fillColor=none;align=center;verticalAlign=middle;whiteSpace=wrap;rounded=0;fontColor=#FFFFFF;container=0;" vertex="1" parent="1">
          <mxGeometry x="27.0625" y="213.74358974358972" width="14.125" height="18.205128205128204" as="geometry" />
        </mxCell>
        <mxCell id="doQYq3akADXhrJh_Z-OA-258" value="" style="rounded=0;whiteSpace=wrap;html=1;gradientColor=none;fillColor=default;strokeColor=#666666;container=0;" vertex="1" parent="1">
          <mxGeometry x="330.75" y="204.64102564102564" width="254.25000000000003" height="127.43589743589743" as="geometry" />
        </mxCell>
        <mxCell id="doQYq3akADXhrJh_Z-OA-259" value="" style="endArrow=none;html=1;rounded=0;fillColor=#eeeeee;strokeColor=#999999;" edge="1" parent="1">
          <mxGeometry width="50" height="50" relative="1" as="geometry">
            <mxPoint x="387.25" y="313.87179487179486" as="sourcePoint" />
            <mxPoint x="387.25" y="222.84615384615384" as="targetPoint" />
          </mxGeometry>
        </mxCell>
        <mxCell id="doQYq3akADXhrJh_Z-OA-260" value="" style="endArrow=none;html=1;rounded=0;strokeColor=#999999;" edge="1" parent="1">
          <mxGeometry width="50" height="50" relative="1" as="geometry">
            <mxPoint x="415.5" y="313.87179487179486" as="sourcePoint" />
            <mxPoint x="415.5" y="222.84615384615384" as="targetPoint" />
          </mxGeometry>
        </mxCell>
        <mxCell id="doQYq3akADXhrJh_Z-OA-261" value="" style="endArrow=none;html=1;rounded=0;strokeColor=#999999;" edge="1" parent="1">
          <mxGeometry width="50" height="50" relative="1" as="geometry">
            <mxPoint x="443.75" y="313.87179487179486" as="sourcePoint" />
            <mxPoint x="443.75" y="222.84615384615384" as="targetPoint" />
          </mxGeometry>
        </mxCell>
        <mxCell id="doQYq3akADXhrJh_Z-OA-262" value="" style="endArrow=none;html=1;rounded=0;strokeColor=#999999;" edge="1" parent="1">
          <mxGeometry width="50" height="50" relative="1" as="geometry">
            <mxPoint x="472" y="313.87179487179486" as="sourcePoint" />
            <mxPoint x="472" y="222.84615384615384" as="targetPoint" />
          </mxGeometry>
        </mxCell>
        <mxCell id="doQYq3akADXhrJh_Z-OA-263" value="" style="endArrow=none;html=1;rounded=0;strokeColor=#999999;" edge="1" parent="1">
          <mxGeometry width="50" height="50" relative="1" as="geometry">
            <mxPoint x="500.25" y="313.87179487179486" as="sourcePoint" />
            <mxPoint x="500.25" y="222.84615384615384" as="targetPoint" />
          </mxGeometry>
        </mxCell>
        <mxCell id="doQYq3akADXhrJh_Z-OA-264" value="" style="endArrow=none;html=1;rounded=0;strokeColor=#999999;" edge="1" parent="1">
          <mxGeometry width="50" height="50" relative="1" as="geometry">
            <mxPoint x="528.5" y="313.87179487179486" as="sourcePoint" />
            <mxPoint x="528.5" y="222.84615384615384" as="targetPoint" />
          </mxGeometry>
        </mxCell>
        <mxCell id="doQYq3akADXhrJh_Z-OA-265" value="" style="endArrow=none;html=1;rounded=0;strokeColor=#999999;" edge="1" parent="1">
          <mxGeometry width="50" height="50" relative="1" as="geometry">
            <mxPoint x="556.75" y="313.87179487179486" as="sourcePoint" />
            <mxPoint x="556.75" y="222.84615384615384" as="targetPoint" />
          </mxGeometry>
        </mxCell>
        <mxCell id="doQYq3akADXhrJh_Z-OA-266" value="" style="rounded=0;whiteSpace=wrap;html=1;strokeColor=#666666;fillColor=#666666;gradientColor=none;container=0;" vertex="1" parent="1">
          <mxGeometry x="302.5" y="204.64102564102564" width="28.25" height="127.43589743589743" as="geometry" />
        </mxCell>
        <mxCell id="doQYq3akADXhrJh_Z-OA-267" value="" style="endArrow=none;html=1;rounded=0;strokeColor=#999999;" edge="1" parent="1">
          <mxGeometry width="50" height="50" relative="1" as="geometry">
            <mxPoint x="359" y="313.87179487179486" as="sourcePoint" />
            <mxPoint x="359" y="222.84615384615384" as="targetPoint" />
          </mxGeometry>
        </mxCell>
        <mxCell id="doQYq3akADXhrJh_Z-OA-268" value="" style="endArrow=none;html=1;rounded=0;exitX=-0.003;exitY=0.149;exitDx=0;exitDy=0;exitPerimeter=0;" edge="1" parent="1">
          <mxGeometry width="50" height="50" relative="1" as="geometry">
            <mxPoint x="330.75" y="222.8461538461538" as="sourcePoint" />
            <mxPoint x="585" y="222.84615384615384" as="targetPoint" />
          </mxGeometry>
        </mxCell>
        <mxCell id="doQYq3akADXhrJh_Z-OA-269" value="" style="endArrow=none;html=1;rounded=0;" edge="1" parent="1">
          <mxGeometry width="50" height="50" relative="1" as="geometry">
            <mxPoint x="330.75" y="241.05128205128204" as="sourcePoint" />
            <mxPoint x="585" y="241.05128205128204" as="targetPoint" />
          </mxGeometry>
        </mxCell>
        <mxCell id="doQYq3akADXhrJh_Z-OA-270" value="" style="endArrow=none;html=1;rounded=0;exitX=0;exitY=0.447;exitDx=0;exitDy=0;exitPerimeter=0;" edge="1" parent="1">
          <mxGeometry width="50" height="50" relative="1" as="geometry">
            <mxPoint x="330.75" y="259.25641025641033" as="sourcePoint" />
            <mxPoint x="585" y="259.2564102564103" as="targetPoint" />
          </mxGeometry>
        </mxCell>
        <mxCell id="doQYq3akADXhrJh_Z-OA-271" value="" style="endArrow=none;html=1;rounded=0;exitX=0;exitY=0.597;exitDx=0;exitDy=0;exitPerimeter=0;" edge="1" parent="1">
          <mxGeometry width="50" height="50" relative="1" as="geometry">
            <mxPoint x="330.75" y="277.46153846153857" as="sourcePoint" />
            <mxPoint x="585" y="277.46153846153845" as="targetPoint" />
          </mxGeometry>
        </mxCell>
        <mxCell id="doQYq3akADXhrJh_Z-OA-272" value="" style="endArrow=none;html=1;rounded=0;exitX=0;exitY=0.75;exitDx=0;exitDy=0;" edge="1" parent="1">
          <mxGeometry width="50" height="50" relative="1" as="geometry">
            <mxPoint x="330.75" y="295.66666666666663" as="sourcePoint" />
            <mxPoint x="585" y="295.66666666666663" as="targetPoint" />
          </mxGeometry>
        </mxCell>
        <mxCell id="doQYq3akADXhrJh_Z-OA-273" value="" style="endArrow=none;html=1;rounded=0;entryX=-0.003;entryY=0.895;entryDx=0;entryDy=0;entryPerimeter=0;" edge="1" parent="1">
          <mxGeometry width="50" height="50" relative="1" as="geometry">
            <mxPoint x="585" y="313.87179487179486" as="sourcePoint" />
            <mxPoint x="330.11437499999994" y="313.87179487179486" as="targetPoint" />
          </mxGeometry>
        </mxCell>
        <mxCell id="doQYq3akADXhrJh_Z-OA-274" value="" style="ellipse;whiteSpace=wrap;html=1;aspect=fixed;strokeColor=#000000;fillColor=#FFFFFF;gradientColor=none;container=0;" vertex="1" parent="1">
          <mxGeometry x="351.9375" y="231.94871794871796" width="14.125" height="14.125" as="geometry" />
        </mxCell>
        <mxCell id="doQYq3akADXhrJh_Z-OA-275" value="" style="ellipse;whiteSpace=wrap;html=1;aspect=fixed;strokeColor=#000000;fillColor=#FFFFFF;gradientColor=none;container=0;" vertex="1" parent="1">
          <mxGeometry x="380.1875" y="250.15384615384613" width="14.125" height="14.125" as="geometry" />
        </mxCell>
        <mxCell id="doQYq3akADXhrJh_Z-OA-276" value="" style="ellipse;whiteSpace=wrap;html=1;aspect=fixed;strokeColor=#000000;fillColor=#FFFFFF;gradientColor=none;container=0;" vertex="1" parent="1">
          <mxGeometry x="408.4375" y="286.56410256410254" width="14.125" height="14.125" as="geometry" />
        </mxCell>
        <mxCell id="doQYq3akADXhrJh_Z-OA-277" value="" style="ellipse;whiteSpace=wrap;html=1;aspect=fixed;strokeColor=#000000;fillColor=#FFFFFF;gradientColor=none;container=0;" vertex="1" parent="1">
          <mxGeometry x="436.6875" y="231.94871794871796" width="14.125" height="14.125" as="geometry" />
        </mxCell>
        <mxCell id="doQYq3akADXhrJh_Z-OA-278" value="" style="ellipse;whiteSpace=wrap;html=1;aspect=fixed;strokeColor=#000000;fillColor=#FFFFFF;gradientColor=none;container=0;" vertex="1" parent="1">
          <mxGeometry x="464.9375" y="250.15384615384613" width="14.125" height="14.125" as="geometry" />
        </mxCell>
        <mxCell id="doQYq3akADXhrJh_Z-OA-279" value="" style="ellipse;whiteSpace=wrap;html=1;aspect=fixed;strokeColor=#000000;fillColor=#FFFFFF;gradientColor=none;container=0;" vertex="1" parent="1">
          <mxGeometry x="493.1875" y="268.35897435897436" width="14.125" height="14.125" as="geometry" />
        </mxCell>
        <mxCell id="doQYq3akADXhrJh_Z-OA-280" value="" style="ellipse;whiteSpace=wrap;html=1;aspect=fixed;strokeColor=#000000;fillColor=#FFFFFF;gradientColor=none;container=0;" vertex="1" parent="1">
          <mxGeometry x="521.4375" y="248.33333333333331" width="14.125" height="14.125" as="geometry" />
        </mxCell>
        <mxCell id="doQYq3akADXhrJh_Z-OA-281" value="" style="ellipse;whiteSpace=wrap;html=1;aspect=fixed;strokeColor=#000000;fillColor=#FFFFFF;gradientColor=none;container=0;" vertex="1" parent="1">
          <mxGeometry x="549.6875" y="286.56410256410254" width="14.125" height="14.125" as="geometry" />
        </mxCell>
        <mxCell id="doQYq3akADXhrJh_Z-OA-1030" value="9" style="text;html=1;strokeColor=none;fillColor=none;align=center;verticalAlign=middle;whiteSpace=wrap;rounded=0;fontColor=#FFFFFF;container=0;" vertex="1" parent="1">
          <mxGeometry x="309.5625" y="213.74358974358972" width="14.125" height="18.205128205128204" as="geometry" />
        </mxCell>
        <mxCell id="doQYq3akADXhrJh_Z-OA-283" value="" style="rounded=0;whiteSpace=wrap;html=1;gradientColor=none;fillColor=default;strokeColor=#666666;container=0;" vertex="1" parent="1">
          <mxGeometry x="613.25" y="204.64102564102564" width="254.25000000000003" height="127.43589743589743" as="geometry" />
        </mxCell>
        <mxCell id="doQYq3akADXhrJh_Z-OA-284" value="" style="endArrow=none;html=1;rounded=0;fillColor=#eeeeee;strokeColor=#999999;" edge="1" parent="1">
          <mxGeometry width="50" height="50" relative="1" as="geometry">
            <mxPoint x="669.75" y="313.87179487179486" as="sourcePoint" />
            <mxPoint x="669.75" y="222.84615384615384" as="targetPoint" />
          </mxGeometry>
        </mxCell>
        <mxCell id="doQYq3akADXhrJh_Z-OA-285" value="" style="endArrow=none;html=1;rounded=0;strokeColor=#999999;" edge="1" parent="1">
          <mxGeometry width="50" height="50" relative="1" as="geometry">
            <mxPoint x="698" y="313.87179487179486" as="sourcePoint" />
            <mxPoint x="698" y="222.84615384615384" as="targetPoint" />
          </mxGeometry>
        </mxCell>
        <mxCell id="doQYq3akADXhrJh_Z-OA-286" value="" style="endArrow=none;html=1;rounded=0;strokeColor=#999999;" edge="1" parent="1">
          <mxGeometry width="50" height="50" relative="1" as="geometry">
            <mxPoint x="726.25" y="313.87179487179486" as="sourcePoint" />
            <mxPoint x="726.25" y="222.84615384615384" as="targetPoint" />
          </mxGeometry>
        </mxCell>
        <mxCell id="doQYq3akADXhrJh_Z-OA-287" value="" style="endArrow=none;html=1;rounded=0;strokeColor=#999999;" edge="1" parent="1">
          <mxGeometry width="50" height="50" relative="1" as="geometry">
            <mxPoint x="754.5" y="313.87179487179486" as="sourcePoint" />
            <mxPoint x="754.5" y="222.84615384615384" as="targetPoint" />
          </mxGeometry>
        </mxCell>
        <mxCell id="doQYq3akADXhrJh_Z-OA-288" value="" style="endArrow=none;html=1;rounded=0;strokeColor=#999999;" edge="1" parent="1">
          <mxGeometry width="50" height="50" relative="1" as="geometry">
            <mxPoint x="782.75" y="313.87179487179486" as="sourcePoint" />
            <mxPoint x="782.75" y="222.84615384615384" as="targetPoint" />
          </mxGeometry>
        </mxCell>
        <mxCell id="doQYq3akADXhrJh_Z-OA-289" value="" style="endArrow=none;html=1;rounded=0;strokeColor=#999999;" edge="1" parent="1">
          <mxGeometry width="50" height="50" relative="1" as="geometry">
            <mxPoint x="811" y="313.87179487179486" as="sourcePoint" />
            <mxPoint x="811" y="222.84615384615384" as="targetPoint" />
          </mxGeometry>
        </mxCell>
        <mxCell id="doQYq3akADXhrJh_Z-OA-290" value="" style="endArrow=none;html=1;rounded=0;strokeColor=#999999;" edge="1" parent="1">
          <mxGeometry width="50" height="50" relative="1" as="geometry">
            <mxPoint x="839.25" y="313.87179487179486" as="sourcePoint" />
            <mxPoint x="839.25" y="222.84615384615384" as="targetPoint" />
          </mxGeometry>
        </mxCell>
        <mxCell id="doQYq3akADXhrJh_Z-OA-291" value="" style="rounded=0;whiteSpace=wrap;html=1;strokeColor=#666666;fillColor=#666666;gradientColor=none;container=0;" vertex="1" parent="1">
          <mxGeometry x="585" y="204.64102564102564" width="28.25" height="127.43589743589743" as="geometry" />
        </mxCell>
        <mxCell id="doQYq3akADXhrJh_Z-OA-292" value="" style="endArrow=none;html=1;rounded=0;strokeColor=#999999;" edge="1" parent="1">
          <mxGeometry width="50" height="50" relative="1" as="geometry">
            <mxPoint x="641.5" y="313.87179487179486" as="sourcePoint" />
            <mxPoint x="641.5" y="222.84615384615384" as="targetPoint" />
          </mxGeometry>
        </mxCell>
        <mxCell id="doQYq3akADXhrJh_Z-OA-293" value="" style="endArrow=none;html=1;rounded=0;exitX=-0.003;exitY=0.149;exitDx=0;exitDy=0;exitPerimeter=0;" edge="1" parent="1">
          <mxGeometry width="50" height="50" relative="1" as="geometry">
            <mxPoint x="613.25" y="222.8461538461538" as="sourcePoint" />
            <mxPoint x="867.5" y="222.84615384615384" as="targetPoint" />
          </mxGeometry>
        </mxCell>
        <mxCell id="doQYq3akADXhrJh_Z-OA-294" value="" style="endArrow=none;html=1;rounded=0;" edge="1" parent="1">
          <mxGeometry width="50" height="50" relative="1" as="geometry">
            <mxPoint x="613.25" y="241.05128205128204" as="sourcePoint" />
            <mxPoint x="867.5" y="241.05128205128204" as="targetPoint" />
          </mxGeometry>
        </mxCell>
        <mxCell id="doQYq3akADXhrJh_Z-OA-295" value="" style="endArrow=none;html=1;rounded=0;exitX=0;exitY=0.447;exitDx=0;exitDy=0;exitPerimeter=0;" edge="1" parent="1">
          <mxGeometry width="50" height="50" relative="1" as="geometry">
            <mxPoint x="613.25" y="259.25641025641033" as="sourcePoint" />
            <mxPoint x="867.5" y="259.2564102564103" as="targetPoint" />
          </mxGeometry>
        </mxCell>
        <mxCell id="doQYq3akADXhrJh_Z-OA-296" value="" style="endArrow=none;html=1;rounded=0;exitX=0;exitY=0.597;exitDx=0;exitDy=0;exitPerimeter=0;" edge="1" parent="1">
          <mxGeometry width="50" height="50" relative="1" as="geometry">
            <mxPoint x="613.25" y="277.46153846153857" as="sourcePoint" />
            <mxPoint x="867.5" y="277.46153846153845" as="targetPoint" />
          </mxGeometry>
        </mxCell>
        <mxCell id="doQYq3akADXhrJh_Z-OA-297" value="" style="endArrow=none;html=1;rounded=0;exitX=0;exitY=0.75;exitDx=0;exitDy=0;" edge="1" parent="1">
          <mxGeometry width="50" height="50" relative="1" as="geometry">
            <mxPoint x="613.25" y="295.66666666666663" as="sourcePoint" />
            <mxPoint x="867.5" y="295.66666666666663" as="targetPoint" />
          </mxGeometry>
        </mxCell>
        <mxCell id="doQYq3akADXhrJh_Z-OA-298" value="" style="endArrow=none;html=1;rounded=0;entryX=-0.003;entryY=0.895;entryDx=0;entryDy=0;entryPerimeter=0;" edge="1" parent="1">
          <mxGeometry width="50" height="50" relative="1" as="geometry">
            <mxPoint x="867.5" y="313.87179487179486" as="sourcePoint" />
            <mxPoint x="612.6143749999999" y="313.87179487179486" as="targetPoint" />
          </mxGeometry>
        </mxCell>
        <mxCell id="doQYq3akADXhrJh_Z-OA-299" value="" style="ellipse;whiteSpace=wrap;html=1;aspect=fixed;strokeColor=#000000;fillColor=#FFFFFF;gradientColor=none;container=0;" vertex="1" parent="1">
          <mxGeometry x="634.4375" y="286.56410256410254" width="14.125" height="14.125" as="geometry" />
        </mxCell>
        <mxCell id="doQYq3akADXhrJh_Z-OA-300" value="" style="ellipse;whiteSpace=wrap;html=1;aspect=fixed;strokeColor=#000000;fillColor=#FFFFFF;gradientColor=none;container=0;" vertex="1" parent="1">
          <mxGeometry x="662.6875" y="250.15384615384613" width="14.125" height="14.125" as="geometry" />
        </mxCell>
        <mxCell id="doQYq3akADXhrJh_Z-OA-301" value="" style="ellipse;whiteSpace=wrap;html=1;aspect=fixed;strokeColor=#000000;fillColor=#FFFFFF;gradientColor=none;container=0;" vertex="1" parent="1">
          <mxGeometry x="690.9375" y="231.94871794871796" width="14.125" height="14.125" as="geometry" />
        </mxCell>
        <mxCell id="doQYq3akADXhrJh_Z-OA-302" value="" style="ellipse;whiteSpace=wrap;html=1;aspect=fixed;strokeColor=#000000;fillColor=#FFFFFF;gradientColor=none;container=0;" vertex="1" parent="1">
          <mxGeometry x="719.1875" y="213.74358974358972" width="14.125" height="14.125" as="geometry" />
        </mxCell>
        <mxCell id="doQYq3akADXhrJh_Z-OA-303" value="" style="ellipse;whiteSpace=wrap;html=1;aspect=fixed;strokeColor=#000000;fillColor=#FFFFFF;gradientColor=none;container=0;" vertex="1" parent="1">
          <mxGeometry x="747.4375" y="286.56410256410254" width="14.125" height="14.125" as="geometry" />
        </mxCell>
        <mxCell id="doQYq3akADXhrJh_Z-OA-304" value="" style="ellipse;whiteSpace=wrap;html=1;aspect=fixed;strokeColor=#000000;fillColor=#FFFFFF;gradientColor=none;container=0;" vertex="1" parent="1">
          <mxGeometry x="775.6875" y="250.15384615384613" width="14.125" height="14.125" as="geometry" />
        </mxCell>
        <mxCell id="doQYq3akADXhrJh_Z-OA-305" value="" style="ellipse;whiteSpace=wrap;html=1;aspect=fixed;strokeColor=#000000;fillColor=#FFFFFF;gradientColor=none;container=0;" vertex="1" parent="1">
          <mxGeometry x="803.9375" y="231.94871794871796" width="14.125" height="14.125" as="geometry" />
        </mxCell>
        <mxCell id="doQYq3akADXhrJh_Z-OA-306" value="" style="ellipse;whiteSpace=wrap;html=1;aspect=fixed;strokeColor=#000000;fillColor=#FFFFFF;gradientColor=none;container=0;" vertex="1" parent="1">
          <mxGeometry x="832.1875" y="213.74358974358972" width="14.125" height="14.125" as="geometry" />
        </mxCell>
        <mxCell id="doQYq3akADXhrJh_Z-OA-1031" value="10" style="text;html=1;strokeColor=none;fillColor=none;align=center;verticalAlign=middle;whiteSpace=wrap;rounded=0;fontColor=#FFFFFF;container=0;" vertex="1" parent="1">
          <mxGeometry x="592.0625" y="213.74358974358972" width="14.125" height="18.205128205128204" as="geometry" />
        </mxCell>
        <mxCell id="doQYq3akADXhrJh_Z-OA-308" value="" style="rounded=0;whiteSpace=wrap;html=1;gradientColor=none;fillColor=default;strokeColor=#666666;container=0;" vertex="1" parent="1">
          <mxGeometry x="895.75" y="204.64102564102564" width="254.25000000000003" height="127.43589743589743" as="geometry" />
        </mxCell>
        <mxCell id="doQYq3akADXhrJh_Z-OA-309" value="" style="endArrow=none;html=1;rounded=0;fillColor=#eeeeee;strokeColor=#999999;" edge="1" parent="1">
          <mxGeometry width="50" height="50" relative="1" as="geometry">
            <mxPoint x="952.25" y="313.87179487179486" as="sourcePoint" />
            <mxPoint x="952.25" y="222.84615384615384" as="targetPoint" />
          </mxGeometry>
        </mxCell>
        <mxCell id="doQYq3akADXhrJh_Z-OA-310" value="" style="endArrow=none;html=1;rounded=0;strokeColor=#999999;" edge="1" parent="1">
          <mxGeometry width="50" height="50" relative="1" as="geometry">
            <mxPoint x="980.5" y="313.87179487179486" as="sourcePoint" />
            <mxPoint x="980.5" y="222.84615384615384" as="targetPoint" />
          </mxGeometry>
        </mxCell>
        <mxCell id="doQYq3akADXhrJh_Z-OA-311" value="" style="endArrow=none;html=1;rounded=0;strokeColor=#999999;" edge="1" parent="1">
          <mxGeometry width="50" height="50" relative="1" as="geometry">
            <mxPoint x="1008.75" y="313.87179487179486" as="sourcePoint" />
            <mxPoint x="1008.75" y="222.84615384615384" as="targetPoint" />
          </mxGeometry>
        </mxCell>
        <mxCell id="doQYq3akADXhrJh_Z-OA-312" value="" style="endArrow=none;html=1;rounded=0;strokeColor=#999999;" edge="1" parent="1">
          <mxGeometry width="50" height="50" relative="1" as="geometry">
            <mxPoint x="1037" y="313.87179487179486" as="sourcePoint" />
            <mxPoint x="1037" y="222.84615384615384" as="targetPoint" />
          </mxGeometry>
        </mxCell>
        <mxCell id="doQYq3akADXhrJh_Z-OA-313" value="" style="endArrow=none;html=1;rounded=0;strokeColor=#999999;" edge="1" parent="1">
          <mxGeometry width="50" height="50" relative="1" as="geometry">
            <mxPoint x="1065.25" y="313.87179487179486" as="sourcePoint" />
            <mxPoint x="1065.25" y="222.84615384615384" as="targetPoint" />
          </mxGeometry>
        </mxCell>
        <mxCell id="doQYq3akADXhrJh_Z-OA-314" value="" style="endArrow=none;html=1;rounded=0;strokeColor=#999999;" edge="1" parent="1">
          <mxGeometry width="50" height="50" relative="1" as="geometry">
            <mxPoint x="1093.5" y="313.87179487179486" as="sourcePoint" />
            <mxPoint x="1093.5" y="222.84615384615384" as="targetPoint" />
          </mxGeometry>
        </mxCell>
        <mxCell id="doQYq3akADXhrJh_Z-OA-315" value="" style="endArrow=none;html=1;rounded=0;strokeColor=#999999;" edge="1" parent="1">
          <mxGeometry width="50" height="50" relative="1" as="geometry">
            <mxPoint x="1121.75" y="313.87179487179486" as="sourcePoint" />
            <mxPoint x="1121.75" y="222.84615384615384" as="targetPoint" />
          </mxGeometry>
        </mxCell>
        <mxCell id="doQYq3akADXhrJh_Z-OA-316" value="" style="rounded=0;whiteSpace=wrap;html=1;strokeColor=#666666;fillColor=#666666;gradientColor=none;container=0;" vertex="1" parent="1">
          <mxGeometry x="867.5" y="204.64102564102564" width="28.25" height="127.43589743589743" as="geometry" />
        </mxCell>
        <mxCell id="doQYq3akADXhrJh_Z-OA-317" value="" style="endArrow=none;html=1;rounded=0;strokeColor=#999999;" edge="1" parent="1">
          <mxGeometry width="50" height="50" relative="1" as="geometry">
            <mxPoint x="924" y="313.87179487179486" as="sourcePoint" />
            <mxPoint x="924" y="222.84615384615384" as="targetPoint" />
          </mxGeometry>
        </mxCell>
        <mxCell id="doQYq3akADXhrJh_Z-OA-318" value="" style="endArrow=none;html=1;rounded=0;exitX=-0.003;exitY=0.149;exitDx=0;exitDy=0;exitPerimeter=0;" edge="1" parent="1">
          <mxGeometry width="50" height="50" relative="1" as="geometry">
            <mxPoint x="895.75" y="222.8461538461538" as="sourcePoint" />
            <mxPoint x="1150" y="222.84615384615384" as="targetPoint" />
          </mxGeometry>
        </mxCell>
        <mxCell id="doQYq3akADXhrJh_Z-OA-319" value="" style="endArrow=none;html=1;rounded=0;" edge="1" parent="1">
          <mxGeometry width="50" height="50" relative="1" as="geometry">
            <mxPoint x="895.75" y="241.05128205128204" as="sourcePoint" />
            <mxPoint x="1150" y="241.05128205128204" as="targetPoint" />
          </mxGeometry>
        </mxCell>
        <mxCell id="doQYq3akADXhrJh_Z-OA-320" value="" style="endArrow=none;html=1;rounded=0;exitX=0;exitY=0.447;exitDx=0;exitDy=0;exitPerimeter=0;" edge="1" parent="1">
          <mxGeometry width="50" height="50" relative="1" as="geometry">
            <mxPoint x="895.75" y="259.25641025641033" as="sourcePoint" />
            <mxPoint x="1150" y="259.2564102564103" as="targetPoint" />
          </mxGeometry>
        </mxCell>
        <mxCell id="doQYq3akADXhrJh_Z-OA-321" value="" style="endArrow=none;html=1;rounded=0;exitX=0;exitY=0.597;exitDx=0;exitDy=0;exitPerimeter=0;" edge="1" parent="1">
          <mxGeometry width="50" height="50" relative="1" as="geometry">
            <mxPoint x="895.75" y="277.46153846153857" as="sourcePoint" />
            <mxPoint x="1150" y="277.46153846153845" as="targetPoint" />
          </mxGeometry>
        </mxCell>
        <mxCell id="doQYq3akADXhrJh_Z-OA-322" value="" style="endArrow=none;html=1;rounded=0;exitX=0;exitY=0.75;exitDx=0;exitDy=0;" edge="1" parent="1">
          <mxGeometry width="50" height="50" relative="1" as="geometry">
            <mxPoint x="895.75" y="295.66666666666663" as="sourcePoint" />
            <mxPoint x="1150" y="295.66666666666663" as="targetPoint" />
          </mxGeometry>
        </mxCell>
        <mxCell id="doQYq3akADXhrJh_Z-OA-323" value="" style="endArrow=none;html=1;rounded=0;entryX=-0.003;entryY=0.895;entryDx=0;entryDy=0;entryPerimeter=0;" edge="1" parent="1">
          <mxGeometry width="50" height="50" relative="1" as="geometry">
            <mxPoint x="1150" y="313.87179487179486" as="sourcePoint" />
            <mxPoint x="895.1143749999999" y="313.87179487179486" as="targetPoint" />
          </mxGeometry>
        </mxCell>
        <mxCell id="doQYq3akADXhrJh_Z-OA-324" value="" style="ellipse;whiteSpace=wrap;html=1;aspect=fixed;strokeColor=#000000;fillColor=#FFFFFF;gradientColor=none;container=0;" vertex="1" parent="1">
          <mxGeometry x="916.9375" y="268.35897435897436" width="14.125" height="14.125" as="geometry" />
        </mxCell>
        <mxCell id="doQYq3akADXhrJh_Z-OA-325" value="" style="ellipse;whiteSpace=wrap;html=1;aspect=fixed;strokeColor=#000000;fillColor=#FFFFFF;gradientColor=none;container=0;" vertex="1" parent="1">
          <mxGeometry x="945.1875" y="268.35897435897436" width="14.125" height="14.125" as="geometry" />
        </mxCell>
        <mxCell id="doQYq3akADXhrJh_Z-OA-326" value="" style="ellipse;whiteSpace=wrap;html=1;aspect=fixed;strokeColor=#000000;fillColor=#FFFFFF;gradientColor=none;container=0;" vertex="1" parent="1">
          <mxGeometry x="973.4375" y="231.94871794871796" width="14.125" height="14.125" as="geometry" />
        </mxCell>
        <mxCell id="doQYq3akADXhrJh_Z-OA-327" value="" style="ellipse;whiteSpace=wrap;html=1;aspect=fixed;strokeColor=#000000;fillColor=#FFFFFF;gradientColor=none;container=0;" vertex="1" parent="1">
          <mxGeometry x="973.4375" y="268.35897435897436" width="14.125" height="14.125" as="geometry" />
        </mxCell>
        <mxCell id="doQYq3akADXhrJh_Z-OA-328" value="" style="ellipse;whiteSpace=wrap;html=1;aspect=fixed;strokeColor=#000000;fillColor=#FFFFFF;gradientColor=none;container=0;" vertex="1" parent="1">
          <mxGeometry x="1001.6875" y="231.94871794871796" width="14.125" height="14.125" as="geometry" />
        </mxCell>
        <mxCell id="doQYq3akADXhrJh_Z-OA-329" value="" style="ellipse;whiteSpace=wrap;html=1;aspect=fixed;strokeColor=#000000;fillColor=#FFFFFF;gradientColor=none;container=0;" vertex="1" parent="1">
          <mxGeometry x="1001.6875" y="268.35897435897436" width="14.125" height="14.125" as="geometry" />
        </mxCell>
        <mxCell id="doQYq3akADXhrJh_Z-OA-330" value="" style="ellipse;whiteSpace=wrap;html=1;aspect=fixed;strokeColor=#000000;fillColor=#FFFFFF;gradientColor=none;container=0;" vertex="1" parent="1">
          <mxGeometry x="1058.1875" y="231.94871794871796" width="14.125" height="14.125" as="geometry" />
        </mxCell>
        <mxCell id="doQYq3akADXhrJh_Z-OA-331" value="" style="ellipse;whiteSpace=wrap;html=1;aspect=fixed;strokeColor=#000000;fillColor=#FFFFFF;gradientColor=none;container=0;" vertex="1" parent="1">
          <mxGeometry x="1058.1875" y="268.35897435897436" width="14.125" height="14.125" as="geometry" />
        </mxCell>
        <mxCell id="doQYq3akADXhrJh_Z-OA-332" value="" style="ellipse;whiteSpace=wrap;html=1;aspect=fixed;strokeColor=#000000;fillColor=#FFFFFF;gradientColor=none;container=0;" vertex="1" parent="1">
          <mxGeometry x="916.9375" y="231.94871794871796" width="14.125" height="14.125" as="geometry" />
        </mxCell>
        <mxCell id="doQYq3akADXhrJh_Z-OA-333" value="" style="ellipse;whiteSpace=wrap;html=1;aspect=fixed;strokeColor=#000000;fillColor=#FFFFFF;gradientColor=none;container=0;" vertex="1" parent="1">
          <mxGeometry x="945.1875" y="231.94871794871796" width="14.125" height="14.125" as="geometry" />
        </mxCell>
        <mxCell id="doQYq3akADXhrJh_Z-OA-1032" value="11" style="text;html=1;strokeColor=none;fillColor=none;align=center;verticalAlign=middle;whiteSpace=wrap;rounded=0;fontColor=#FFFFFF;container=0;" vertex="1" parent="1">
          <mxGeometry x="874.5625" y="213.74358974358972" width="14.125" height="18.205128205128204" as="geometry" />
        </mxCell>
        <mxCell id="doQYq3akADXhrJh_Z-OA-335" value="" style="rounded=0;whiteSpace=wrap;html=1;gradientColor=none;fillColor=default;strokeColor=#666666;container=0;" vertex="1" parent="1">
          <mxGeometry x="48.25" y="350.28205128205127" width="254.25000000000003" height="127.43589743589743" as="geometry" />
        </mxCell>
        <mxCell id="doQYq3akADXhrJh_Z-OA-336" value="" style="endArrow=none;html=1;rounded=0;fillColor=#eeeeee;strokeColor=#CCCCCC;" edge="1" parent="1">
          <mxGeometry width="50" height="50" relative="1" as="geometry">
            <mxPoint x="104.75" y="459.5128205128205" as="sourcePoint" />
            <mxPoint x="104.75" y="368.48717948717945" as="targetPoint" />
          </mxGeometry>
        </mxCell>
        <mxCell id="doQYq3akADXhrJh_Z-OA-337" value="" style="endArrow=none;html=1;rounded=0;strokeColor=#CCCCCC;" edge="1" parent="1">
          <mxGeometry width="50" height="50" relative="1" as="geometry">
            <mxPoint x="133" y="459.5128205128205" as="sourcePoint" />
            <mxPoint x="133" y="368.48717948717945" as="targetPoint" />
          </mxGeometry>
        </mxCell>
        <mxCell id="doQYq3akADXhrJh_Z-OA-338" value="" style="endArrow=none;html=1;rounded=0;strokeColor=#CCCCCC;" edge="1" parent="1">
          <mxGeometry width="50" height="50" relative="1" as="geometry">
            <mxPoint x="161.25" y="459.5128205128205" as="sourcePoint" />
            <mxPoint x="161.25" y="368.48717948717945" as="targetPoint" />
          </mxGeometry>
        </mxCell>
        <mxCell id="doQYq3akADXhrJh_Z-OA-339" value="" style="endArrow=none;html=1;rounded=0;strokeColor=#CCCCCC;" edge="1" parent="1">
          <mxGeometry width="50" height="50" relative="1" as="geometry">
            <mxPoint x="189.5" y="459.5128205128205" as="sourcePoint" />
            <mxPoint x="189.5" y="368.48717948717945" as="targetPoint" />
          </mxGeometry>
        </mxCell>
        <mxCell id="doQYq3akADXhrJh_Z-OA-340" value="" style="endArrow=none;html=1;rounded=0;strokeColor=#CCCCCC;" edge="1" parent="1">
          <mxGeometry width="50" height="50" relative="1" as="geometry">
            <mxPoint x="217.75" y="459.5128205128205" as="sourcePoint" />
            <mxPoint x="217.75" y="368.48717948717945" as="targetPoint" />
          </mxGeometry>
        </mxCell>
        <mxCell id="doQYq3akADXhrJh_Z-OA-341" value="" style="endArrow=none;html=1;rounded=0;strokeColor=#CCCCCC;" edge="1" parent="1">
          <mxGeometry width="50" height="50" relative="1" as="geometry">
            <mxPoint x="246" y="459.5128205128205" as="sourcePoint" />
            <mxPoint x="246" y="368.48717948717945" as="targetPoint" />
          </mxGeometry>
        </mxCell>
        <mxCell id="doQYq3akADXhrJh_Z-OA-342" value="" style="endArrow=none;html=1;rounded=0;strokeColor=#CCCCCC;" edge="1" parent="1">
          <mxGeometry width="50" height="50" relative="1" as="geometry">
            <mxPoint x="274.25" y="459.5128205128205" as="sourcePoint" />
            <mxPoint x="274.25" y="368.48717948717945" as="targetPoint" />
          </mxGeometry>
        </mxCell>
        <mxCell id="doQYq3akADXhrJh_Z-OA-343" value="" style="rounded=0;whiteSpace=wrap;html=1;strokeColor=#666666;fillColor=#666666;gradientColor=none;container=0;" vertex="1" parent="1">
          <mxGeometry x="20" y="350.28205128205127" width="28.25" height="127.43589743589743" as="geometry" />
        </mxCell>
        <mxCell id="doQYq3akADXhrJh_Z-OA-344" value="" style="endArrow=none;html=1;rounded=0;strokeColor=#CCCCCC;" edge="1" parent="1">
          <mxGeometry width="50" height="50" relative="1" as="geometry">
            <mxPoint x="76.5" y="459.5128205128205" as="sourcePoint" />
            <mxPoint x="76.5" y="368.48717948717945" as="targetPoint" />
          </mxGeometry>
        </mxCell>
        <mxCell id="doQYq3akADXhrJh_Z-OA-345" value="" style="endArrow=none;html=1;rounded=0;exitX=-0.003;exitY=0.149;exitDx=0;exitDy=0;exitPerimeter=0;" edge="1" parent="1">
          <mxGeometry width="50" height="50" relative="1" as="geometry">
            <mxPoint x="48.24999999999997" y="368.48717948717945" as="sourcePoint" />
            <mxPoint x="302.5" y="368.48717948717945" as="targetPoint" />
          </mxGeometry>
        </mxCell>
        <mxCell id="doQYq3akADXhrJh_Z-OA-346" value="" style="endArrow=none;html=1;rounded=0;" edge="1" parent="1">
          <mxGeometry width="50" height="50" relative="1" as="geometry">
            <mxPoint x="48.25" y="386.6923076923077" as="sourcePoint" />
            <mxPoint x="302.5" y="386.6923076923077" as="targetPoint" />
          </mxGeometry>
        </mxCell>
        <mxCell id="doQYq3akADXhrJh_Z-OA-347" value="" style="endArrow=none;html=1;rounded=0;exitX=0;exitY=0.447;exitDx=0;exitDy=0;exitPerimeter=0;" edge="1" parent="1">
          <mxGeometry width="50" height="50" relative="1" as="geometry">
            <mxPoint x="48.25" y="404.89743589743597" as="sourcePoint" />
            <mxPoint x="302.5" y="404.8974358974359" as="targetPoint" />
          </mxGeometry>
        </mxCell>
        <mxCell id="doQYq3akADXhrJh_Z-OA-348" value="" style="endArrow=none;html=1;rounded=0;exitX=0;exitY=0.597;exitDx=0;exitDy=0;exitPerimeter=0;" edge="1" parent="1">
          <mxGeometry width="50" height="50" relative="1" as="geometry">
            <mxPoint x="48.25" y="423.1025641025642" as="sourcePoint" />
            <mxPoint x="302.5" y="423.1025641025641" as="targetPoint" />
          </mxGeometry>
        </mxCell>
        <mxCell id="doQYq3akADXhrJh_Z-OA-349" value="" style="endArrow=none;html=1;rounded=0;exitX=0;exitY=0.75;exitDx=0;exitDy=0;" edge="1" parent="1">
          <mxGeometry width="50" height="50" relative="1" as="geometry">
            <mxPoint x="48.25" y="441.30769230769226" as="sourcePoint" />
            <mxPoint x="302.5" y="441.30769230769226" as="targetPoint" />
          </mxGeometry>
        </mxCell>
        <mxCell id="doQYq3akADXhrJh_Z-OA-350" value="" style="endArrow=none;html=1;rounded=0;entryX=-0.003;entryY=0.895;entryDx=0;entryDy=0;entryPerimeter=0;" edge="1" parent="1">
          <mxGeometry width="50" height="50" relative="1" as="geometry">
            <mxPoint x="302.5" y="459.5128205128205" as="sourcePoint" />
            <mxPoint x="47.61437499999994" y="459.5128205128205" as="targetPoint" />
          </mxGeometry>
        </mxCell>
        <mxCell id="doQYq3akADXhrJh_Z-OA-351" value="" style="ellipse;whiteSpace=wrap;html=1;aspect=fixed;strokeColor=#000000;fillColor=#FFFFFF;gradientColor=none;container=0;" vertex="1" parent="1">
          <mxGeometry x="69.4375" y="414" width="14.125" height="14.125" as="geometry" />
        </mxCell>
        <mxCell id="doQYq3akADXhrJh_Z-OA-352" value="" style="ellipse;whiteSpace=wrap;html=1;aspect=fixed;strokeColor=#000000;fillColor=#FFFFFF;gradientColor=none;container=0;" vertex="1" parent="1">
          <mxGeometry x="97.6875" y="395.79487179487177" width="14.125" height="14.125" as="geometry" />
        </mxCell>
        <mxCell id="doQYq3akADXhrJh_Z-OA-353" value="" style="ellipse;whiteSpace=wrap;html=1;aspect=fixed;strokeColor=#000000;fillColor=#FFFFFF;gradientColor=none;container=0;" vertex="1" parent="1">
          <mxGeometry x="125.9375" y="377.5897435897436" width="14.125" height="14.125" as="geometry" />
        </mxCell>
        <mxCell id="doQYq3akADXhrJh_Z-OA-354" value="" style="ellipse;whiteSpace=wrap;html=1;aspect=fixed;strokeColor=#000000;fillColor=#FFFFFF;gradientColor=none;container=0;" vertex="1" parent="1">
          <mxGeometry x="154.1875" y="359.38461538461536" width="14.125" height="14.125" as="geometry" />
        </mxCell>
        <mxCell id="doQYq3akADXhrJh_Z-OA-355" value="" style="ellipse;whiteSpace=wrap;html=1;aspect=fixed;strokeColor=#000000;fillColor=#FFFFFF;gradientColor=none;container=0;" vertex="1" parent="1">
          <mxGeometry x="182.4375" y="377.5897435897436" width="14.125" height="14.125" as="geometry" />
        </mxCell>
        <mxCell id="doQYq3akADXhrJh_Z-OA-356" value="" style="ellipse;whiteSpace=wrap;html=1;aspect=fixed;strokeColor=#000000;fillColor=#FFFFFF;gradientColor=none;container=0;" vertex="1" parent="1">
          <mxGeometry x="210.6875" y="395.79487179487177" width="14.125" height="14.125" as="geometry" />
        </mxCell>
        <mxCell id="doQYq3akADXhrJh_Z-OA-357" value="" style="ellipse;whiteSpace=wrap;html=1;aspect=fixed;strokeColor=#000000;fillColor=#FFFFFF;gradientColor=none;container=0;" vertex="1" parent="1">
          <mxGeometry x="238.9375" y="414" width="14.125" height="14.125" as="geometry" />
        </mxCell>
        <mxCell id="doQYq3akADXhrJh_Z-OA-358" value="" style="ellipse;whiteSpace=wrap;html=1;aspect=fixed;strokeColor=#000000;fillColor=#FFFFFF;gradientColor=none;container=0;" vertex="1" parent="1">
          <mxGeometry x="267.1875" y="395.79487179487177" width="14.125" height="14.125" as="geometry" />
        </mxCell>
        <mxCell id="doQYq3akADXhrJh_Z-OA-1033" value="12" style="text;html=1;strokeColor=none;fillColor=none;align=center;verticalAlign=middle;whiteSpace=wrap;rounded=0;fontColor=#FFFFFF;container=0;" vertex="1" parent="1">
          <mxGeometry x="27.0625" y="359.38461538461536" width="14.125" height="18.205128205128204" as="geometry" />
        </mxCell>
        <mxCell id="doQYq3akADXhrJh_Z-OA-360" value="" style="rounded=0;whiteSpace=wrap;html=1;gradientColor=none;fillColor=default;strokeColor=#666666;container=0;" vertex="1" parent="1">
          <mxGeometry x="330.75" y="350.28205128205127" width="254.25000000000003" height="127.43589743589743" as="geometry" />
        </mxCell>
        <mxCell id="doQYq3akADXhrJh_Z-OA-361" value="" style="endArrow=none;html=1;rounded=0;fillColor=#eeeeee;strokeColor=#CCCCCC;" edge="1" parent="1">
          <mxGeometry width="50" height="50" relative="1" as="geometry">
            <mxPoint x="387.25" y="459.5128205128205" as="sourcePoint" />
            <mxPoint x="387.25" y="368.48717948717945" as="targetPoint" />
          </mxGeometry>
        </mxCell>
        <mxCell id="doQYq3akADXhrJh_Z-OA-362" value="" style="endArrow=none;html=1;rounded=0;strokeColor=#CCCCCC;" edge="1" parent="1">
          <mxGeometry width="50" height="50" relative="1" as="geometry">
            <mxPoint x="415.5" y="459.5128205128205" as="sourcePoint" />
            <mxPoint x="415.5" y="368.48717948717945" as="targetPoint" />
          </mxGeometry>
        </mxCell>
        <mxCell id="doQYq3akADXhrJh_Z-OA-363" value="" style="endArrow=none;html=1;rounded=0;strokeColor=#CCCCCC;" edge="1" parent="1">
          <mxGeometry width="50" height="50" relative="1" as="geometry">
            <mxPoint x="443.75" y="459.5128205128205" as="sourcePoint" />
            <mxPoint x="443.75" y="368.48717948717945" as="targetPoint" />
          </mxGeometry>
        </mxCell>
        <mxCell id="doQYq3akADXhrJh_Z-OA-364" value="" style="endArrow=none;html=1;rounded=0;strokeColor=#CCCCCC;" edge="1" parent="1">
          <mxGeometry width="50" height="50" relative="1" as="geometry">
            <mxPoint x="472" y="459.5128205128205" as="sourcePoint" />
            <mxPoint x="472" y="368.48717948717945" as="targetPoint" />
          </mxGeometry>
        </mxCell>
        <mxCell id="doQYq3akADXhrJh_Z-OA-365" value="" style="endArrow=none;html=1;rounded=0;strokeColor=#CCCCCC;" edge="1" parent="1">
          <mxGeometry width="50" height="50" relative="1" as="geometry">
            <mxPoint x="500.25" y="459.5128205128205" as="sourcePoint" />
            <mxPoint x="500.25" y="368.48717948717945" as="targetPoint" />
          </mxGeometry>
        </mxCell>
        <mxCell id="doQYq3akADXhrJh_Z-OA-366" value="" style="endArrow=none;html=1;rounded=0;strokeColor=#CCCCCC;" edge="1" parent="1">
          <mxGeometry width="50" height="50" relative="1" as="geometry">
            <mxPoint x="528.5" y="459.5128205128205" as="sourcePoint" />
            <mxPoint x="528.5" y="368.48717948717945" as="targetPoint" />
          </mxGeometry>
        </mxCell>
        <mxCell id="doQYq3akADXhrJh_Z-OA-367" value="" style="endArrow=none;html=1;rounded=0;strokeColor=#CCCCCC;" edge="1" parent="1">
          <mxGeometry width="50" height="50" relative="1" as="geometry">
            <mxPoint x="556.75" y="459.5128205128205" as="sourcePoint" />
            <mxPoint x="556.75" y="368.48717948717945" as="targetPoint" />
          </mxGeometry>
        </mxCell>
        <mxCell id="doQYq3akADXhrJh_Z-OA-368" value="" style="rounded=0;whiteSpace=wrap;html=1;strokeColor=#666666;fillColor=#666666;gradientColor=none;container=0;" vertex="1" parent="1">
          <mxGeometry x="302.5" y="350.28205128205127" width="28.25" height="127.43589743589743" as="geometry" />
        </mxCell>
        <mxCell id="doQYq3akADXhrJh_Z-OA-369" value="" style="endArrow=none;html=1;rounded=0;strokeColor=#CCCCCC;" edge="1" parent="1">
          <mxGeometry width="50" height="50" relative="1" as="geometry">
            <mxPoint x="359" y="459.5128205128205" as="sourcePoint" />
            <mxPoint x="359" y="368.48717948717945" as="targetPoint" />
          </mxGeometry>
        </mxCell>
        <mxCell id="doQYq3akADXhrJh_Z-OA-370" value="" style="endArrow=none;html=1;rounded=0;exitX=-0.003;exitY=0.149;exitDx=0;exitDy=0;exitPerimeter=0;" edge="1" parent="1">
          <mxGeometry width="50" height="50" relative="1" as="geometry">
            <mxPoint x="330.75" y="368.48717948717945" as="sourcePoint" />
            <mxPoint x="585" y="368.48717948717945" as="targetPoint" />
          </mxGeometry>
        </mxCell>
        <mxCell id="doQYq3akADXhrJh_Z-OA-371" value="" style="endArrow=none;html=1;rounded=0;" edge="1" parent="1">
          <mxGeometry width="50" height="50" relative="1" as="geometry">
            <mxPoint x="330.75" y="386.6923076923077" as="sourcePoint" />
            <mxPoint x="585" y="386.6923076923077" as="targetPoint" />
          </mxGeometry>
        </mxCell>
        <mxCell id="doQYq3akADXhrJh_Z-OA-372" value="" style="endArrow=none;html=1;rounded=0;exitX=0;exitY=0.447;exitDx=0;exitDy=0;exitPerimeter=0;" edge="1" parent="1">
          <mxGeometry width="50" height="50" relative="1" as="geometry">
            <mxPoint x="330.75" y="404.89743589743597" as="sourcePoint" />
            <mxPoint x="585" y="404.8974358974359" as="targetPoint" />
          </mxGeometry>
        </mxCell>
        <mxCell id="doQYq3akADXhrJh_Z-OA-373" value="" style="endArrow=none;html=1;rounded=0;exitX=0;exitY=0.597;exitDx=0;exitDy=0;exitPerimeter=0;" edge="1" parent="1">
          <mxGeometry width="50" height="50" relative="1" as="geometry">
            <mxPoint x="330.75" y="423.1025641025642" as="sourcePoint" />
            <mxPoint x="585" y="423.1025641025641" as="targetPoint" />
          </mxGeometry>
        </mxCell>
        <mxCell id="doQYq3akADXhrJh_Z-OA-374" value="" style="endArrow=none;html=1;rounded=0;exitX=0;exitY=0.75;exitDx=0;exitDy=0;" edge="1" parent="1">
          <mxGeometry width="50" height="50" relative="1" as="geometry">
            <mxPoint x="330.75" y="441.30769230769226" as="sourcePoint" />
            <mxPoint x="585" y="441.30769230769226" as="targetPoint" />
          </mxGeometry>
        </mxCell>
        <mxCell id="doQYq3akADXhrJh_Z-OA-375" value="" style="endArrow=none;html=1;rounded=0;entryX=-0.003;entryY=0.895;entryDx=0;entryDy=0;entryPerimeter=0;" edge="1" parent="1">
          <mxGeometry width="50" height="50" relative="1" as="geometry">
            <mxPoint x="585" y="459.5128205128205" as="sourcePoint" />
            <mxPoint x="330.11437499999994" y="459.5128205128205" as="targetPoint" />
          </mxGeometry>
        </mxCell>
        <mxCell id="doQYq3akADXhrJh_Z-OA-376" value="" style="ellipse;whiteSpace=wrap;html=1;aspect=fixed;strokeColor=#000000;fillColor=#FFFFFF;gradientColor=none;container=0;" vertex="1" parent="1">
          <mxGeometry x="351.9375" y="414" width="14.125" height="14.125" as="geometry" />
        </mxCell>
        <mxCell id="doQYq3akADXhrJh_Z-OA-377" value="" style="ellipse;whiteSpace=wrap;html=1;aspect=fixed;strokeColor=#000000;fillColor=#FFFFFF;gradientColor=none;container=0;" vertex="1" parent="1">
          <mxGeometry x="380.1875" y="395.79487179487177" width="14.125" height="14.125" as="geometry" />
        </mxCell>
        <mxCell id="doQYq3akADXhrJh_Z-OA-378" value="" style="ellipse;whiteSpace=wrap;html=1;aspect=fixed;strokeColor=#000000;fillColor=#FFFFFF;gradientColor=none;container=0;" vertex="1" parent="1">
          <mxGeometry x="408.4375" y="377.5897435897436" width="14.125" height="14.125" as="geometry" />
        </mxCell>
        <mxCell id="doQYq3akADXhrJh_Z-OA-379" value="" style="ellipse;whiteSpace=wrap;html=1;aspect=fixed;strokeColor=#000000;fillColor=#FFFFFF;gradientColor=none;container=0;" vertex="1" parent="1">
          <mxGeometry x="436.6875" y="359.38461538461536" width="14.125" height="14.125" as="geometry" />
        </mxCell>
        <mxCell id="doQYq3akADXhrJh_Z-OA-380" value="" style="ellipse;whiteSpace=wrap;html=1;aspect=fixed;strokeColor=#000000;fillColor=#FFFFFF;gradientColor=none;container=0;" vertex="1" parent="1">
          <mxGeometry x="464.9375" y="432.2051282051282" width="14.125" height="14.125" as="geometry" />
        </mxCell>
        <mxCell id="doQYq3akADXhrJh_Z-OA-381" value="" style="ellipse;whiteSpace=wrap;html=1;aspect=fixed;strokeColor=#000000;fillColor=#FFFFFF;gradientColor=none;container=0;" vertex="1" parent="1">
          <mxGeometry x="493.1875" y="395.79487179487177" width="14.125" height="14.125" as="geometry" />
        </mxCell>
        <mxCell id="doQYq3akADXhrJh_Z-OA-382" value="" style="ellipse;whiteSpace=wrap;html=1;aspect=fixed;strokeColor=#000000;fillColor=#FFFFFF;gradientColor=none;container=0;" vertex="1" parent="1">
          <mxGeometry x="521.4375" y="377.5897435897436" width="14.125" height="14.125" as="geometry" />
        </mxCell>
        <mxCell id="doQYq3akADXhrJh_Z-OA-383" value="" style="ellipse;whiteSpace=wrap;html=1;aspect=fixed;strokeColor=#000000;fillColor=#FFFFFF;gradientColor=none;container=0;" vertex="1" parent="1">
          <mxGeometry x="549.6875" y="359.38461538461536" width="14.125" height="14.125" as="geometry" />
        </mxCell>
        <mxCell id="doQYq3akADXhrJh_Z-OA-1034" value="13" style="text;html=1;strokeColor=none;fillColor=none;align=center;verticalAlign=middle;whiteSpace=wrap;rounded=0;fontColor=#FFFFFF;container=0;" vertex="1" parent="1">
          <mxGeometry x="309.5625" y="359.38461538461536" width="14.125" height="18.205128205128204" as="geometry" />
        </mxCell>
        <mxCell id="doQYq3akADXhrJh_Z-OA-385" value="" style="rounded=0;whiteSpace=wrap;html=1;gradientColor=none;fillColor=default;strokeColor=#666666;container=0;" vertex="1" parent="1">
          <mxGeometry x="613.25" y="350.0020512820513" width="254.25000000000003" height="127.43589743589743" as="geometry" />
        </mxCell>
        <mxCell id="doQYq3akADXhrJh_Z-OA-386" value="" style="endArrow=none;html=1;rounded=0;fillColor=#eeeeee;strokeColor=#CCCCCC;" edge="1" parent="1">
          <mxGeometry width="50" height="50" relative="1" as="geometry">
            <mxPoint x="669.75" y="459.5128205128205" as="sourcePoint" />
            <mxPoint x="669.75" y="368.48717948717945" as="targetPoint" />
          </mxGeometry>
        </mxCell>
        <mxCell id="doQYq3akADXhrJh_Z-OA-387" value="" style="endArrow=none;html=1;rounded=0;strokeColor=#CCCCCC;" edge="1" parent="1">
          <mxGeometry width="50" height="50" relative="1" as="geometry">
            <mxPoint x="698" y="459.5128205128205" as="sourcePoint" />
            <mxPoint x="698" y="368.48717948717945" as="targetPoint" />
          </mxGeometry>
        </mxCell>
        <mxCell id="doQYq3akADXhrJh_Z-OA-388" value="" style="endArrow=none;html=1;rounded=0;strokeColor=#CCCCCC;" edge="1" parent="1">
          <mxGeometry width="50" height="50" relative="1" as="geometry">
            <mxPoint x="726.25" y="459.5128205128205" as="sourcePoint" />
            <mxPoint x="726.25" y="368.48717948717945" as="targetPoint" />
          </mxGeometry>
        </mxCell>
        <mxCell id="doQYq3akADXhrJh_Z-OA-389" value="" style="endArrow=none;html=1;rounded=0;strokeColor=#CCCCCC;" edge="1" parent="1">
          <mxGeometry width="50" height="50" relative="1" as="geometry">
            <mxPoint x="754.5" y="459.5128205128205" as="sourcePoint" />
            <mxPoint x="754.5" y="368.48717948717945" as="targetPoint" />
          </mxGeometry>
        </mxCell>
        <mxCell id="doQYq3akADXhrJh_Z-OA-390" value="" style="endArrow=none;html=1;rounded=0;strokeColor=#CCCCCC;" edge="1" parent="1">
          <mxGeometry width="50" height="50" relative="1" as="geometry">
            <mxPoint x="782.75" y="459.5128205128205" as="sourcePoint" />
            <mxPoint x="782.75" y="368.48717948717945" as="targetPoint" />
          </mxGeometry>
        </mxCell>
        <mxCell id="doQYq3akADXhrJh_Z-OA-391" value="" style="endArrow=none;html=1;rounded=0;strokeColor=#CCCCCC;" edge="1" parent="1">
          <mxGeometry width="50" height="50" relative="1" as="geometry">
            <mxPoint x="811" y="459.5128205128205" as="sourcePoint" />
            <mxPoint x="811" y="368.48717948717945" as="targetPoint" />
          </mxGeometry>
        </mxCell>
        <mxCell id="doQYq3akADXhrJh_Z-OA-392" value="" style="endArrow=none;html=1;rounded=0;strokeColor=#CCCCCC;" edge="1" parent="1">
          <mxGeometry width="50" height="50" relative="1" as="geometry">
            <mxPoint x="839.25" y="459.5128205128205" as="sourcePoint" />
            <mxPoint x="839.25" y="368.48717948717945" as="targetPoint" />
          </mxGeometry>
        </mxCell>
        <mxCell id="doQYq3akADXhrJh_Z-OA-393" value="" style="rounded=0;whiteSpace=wrap;html=1;strokeColor=#666666;fillColor=#666666;gradientColor=none;container=0;" vertex="1" parent="1">
          <mxGeometry x="585" y="350.28205128205127" width="28.25" height="127.43589743589743" as="geometry" />
        </mxCell>
        <mxCell id="doQYq3akADXhrJh_Z-OA-394" value="" style="endArrow=none;html=1;rounded=0;strokeColor=#CCCCCC;" edge="1" parent="1">
          <mxGeometry width="50" height="50" relative="1" as="geometry">
            <mxPoint x="641.5" y="459.5128205128205" as="sourcePoint" />
            <mxPoint x="641.5" y="368.48717948717945" as="targetPoint" />
          </mxGeometry>
        </mxCell>
        <mxCell id="doQYq3akADXhrJh_Z-OA-395" value="" style="endArrow=none;html=1;rounded=0;exitX=-0.003;exitY=0.149;exitDx=0;exitDy=0;exitPerimeter=0;" edge="1" parent="1">
          <mxGeometry width="50" height="50" relative="1" as="geometry">
            <mxPoint x="613.25" y="368.48717948717945" as="sourcePoint" />
            <mxPoint x="867.5" y="368.48717948717945" as="targetPoint" />
          </mxGeometry>
        </mxCell>
        <mxCell id="doQYq3akADXhrJh_Z-OA-396" value="" style="endArrow=none;html=1;rounded=0;" edge="1" parent="1">
          <mxGeometry width="50" height="50" relative="1" as="geometry">
            <mxPoint x="613.25" y="386.6923076923077" as="sourcePoint" />
            <mxPoint x="867.5" y="386.6923076923077" as="targetPoint" />
          </mxGeometry>
        </mxCell>
        <mxCell id="doQYq3akADXhrJh_Z-OA-397" value="" style="endArrow=none;html=1;rounded=0;exitX=0;exitY=0.447;exitDx=0;exitDy=0;exitPerimeter=0;" edge="1" parent="1">
          <mxGeometry width="50" height="50" relative="1" as="geometry">
            <mxPoint x="613.25" y="404.89743589743597" as="sourcePoint" />
            <mxPoint x="867.5" y="404.8974358974359" as="targetPoint" />
          </mxGeometry>
        </mxCell>
        <mxCell id="doQYq3akADXhrJh_Z-OA-398" value="" style="endArrow=none;html=1;rounded=0;exitX=0;exitY=0.597;exitDx=0;exitDy=0;exitPerimeter=0;" edge="1" parent="1">
          <mxGeometry width="50" height="50" relative="1" as="geometry">
            <mxPoint x="613.25" y="423.1025641025642" as="sourcePoint" />
            <mxPoint x="867.5" y="423.1025641025641" as="targetPoint" />
          </mxGeometry>
        </mxCell>
        <mxCell id="doQYq3akADXhrJh_Z-OA-399" value="" style="endArrow=none;html=1;rounded=0;exitX=0;exitY=0.75;exitDx=0;exitDy=0;" edge="1" parent="1">
          <mxGeometry width="50" height="50" relative="1" as="geometry">
            <mxPoint x="613.25" y="441.30769230769226" as="sourcePoint" />
            <mxPoint x="867.5" y="441.30769230769226" as="targetPoint" />
          </mxGeometry>
        </mxCell>
        <mxCell id="doQYq3akADXhrJh_Z-OA-400" value="" style="endArrow=none;html=1;rounded=0;entryX=-0.003;entryY=0.895;entryDx=0;entryDy=0;entryPerimeter=0;" edge="1" parent="1">
          <mxGeometry width="50" height="50" relative="1" as="geometry">
            <mxPoint x="867.5" y="459.5128205128205" as="sourcePoint" />
            <mxPoint x="612.6143749999999" y="459.5128205128205" as="targetPoint" />
          </mxGeometry>
        </mxCell>
        <mxCell id="doQYq3akADXhrJh_Z-OA-401" value="" style="ellipse;whiteSpace=wrap;html=1;aspect=fixed;strokeColor=#000000;fillColor=#FFFFFF;gradientColor=none;container=0;" vertex="1" parent="1">
          <mxGeometry x="634.4375" y="432.2051282051282" width="14.125" height="14.125" as="geometry" />
        </mxCell>
        <mxCell id="doQYq3akADXhrJh_Z-OA-402" value="" style="ellipse;whiteSpace=wrap;html=1;aspect=fixed;strokeColor=#000000;fillColor=#FFFFFF;gradientColor=none;container=0;" vertex="1" parent="1">
          <mxGeometry x="662.6875" y="395.79487179487177" width="14.125" height="14.125" as="geometry" />
        </mxCell>
        <mxCell id="doQYq3akADXhrJh_Z-OA-403" value="" style="ellipse;whiteSpace=wrap;html=1;aspect=fixed;strokeColor=#000000;fillColor=#FFFFFF;gradientColor=none;container=0;" vertex="1" parent="1">
          <mxGeometry x="690.9375" y="377.5897435897436" width="14.125" height="14.125" as="geometry" />
        </mxCell>
        <mxCell id="doQYq3akADXhrJh_Z-OA-404" value="" style="ellipse;whiteSpace=wrap;html=1;aspect=fixed;strokeColor=#000000;fillColor=#FFFFFF;gradientColor=none;container=0;" vertex="1" parent="1">
          <mxGeometry x="719.1875" y="359.38461538461536" width="14.125" height="14.125" as="geometry" />
        </mxCell>
        <mxCell id="doQYq3akADXhrJh_Z-OA-405" value="" style="ellipse;whiteSpace=wrap;html=1;aspect=fixed;strokeColor=#000000;fillColor=#FFFFFF;gradientColor=none;container=0;" vertex="1" parent="1">
          <mxGeometry x="747.4375" y="432.2051282051282" width="14.125" height="14.125" as="geometry" />
        </mxCell>
        <mxCell id="doQYq3akADXhrJh_Z-OA-406" value="" style="ellipse;whiteSpace=wrap;html=1;aspect=fixed;strokeColor=#000000;fillColor=#FFFFFF;gradientColor=none;container=0;" vertex="1" parent="1">
          <mxGeometry x="775.6875" y="395.79487179487177" width="14.125" height="14.125" as="geometry" />
        </mxCell>
        <mxCell id="doQYq3akADXhrJh_Z-OA-407" value="" style="ellipse;whiteSpace=wrap;html=1;aspect=fixed;strokeColor=#000000;fillColor=#FFFFFF;gradientColor=none;container=0;" vertex="1" parent="1">
          <mxGeometry x="803.9375" y="377.5897435897436" width="14.125" height="14.125" as="geometry" />
        </mxCell>
        <mxCell id="doQYq3akADXhrJh_Z-OA-408" value="" style="ellipse;whiteSpace=wrap;html=1;aspect=fixed;strokeColor=#000000;fillColor=#FFFFFF;gradientColor=none;container=0;" vertex="1" parent="1">
          <mxGeometry x="832.1875" y="359.38461538461536" width="14.125" height="14.125" as="geometry" />
        </mxCell>
        <mxCell id="doQYq3akADXhrJh_Z-OA-1035" value="14" style="text;html=1;strokeColor=none;fillColor=none;align=center;verticalAlign=middle;whiteSpace=wrap;rounded=0;fontColor=#FFFFFF;container=0;" vertex="1" parent="1">
          <mxGeometry x="592.0625" y="359.38461538461536" width="14.125" height="18.205128205128204" as="geometry" />
        </mxCell>
        <mxCell id="doQYq3akADXhrJh_Z-OA-410" value="" style="rounded=0;whiteSpace=wrap;html=1;gradientColor=none;fillColor=default;strokeColor=#666666;container=0;" vertex="1" parent="1">
          <mxGeometry x="895.75" y="350.28205128205127" width="254.25000000000003" height="127.43589743589743" as="geometry" />
        </mxCell>
        <mxCell id="doQYq3akADXhrJh_Z-OA-411" value="" style="endArrow=none;html=1;rounded=0;fillColor=#eeeeee;strokeColor=#CCCCCC;" edge="1" parent="1">
          <mxGeometry width="50" height="50" relative="1" as="geometry">
            <mxPoint x="952.25" y="459.5128205128205" as="sourcePoint" />
            <mxPoint x="952.25" y="368.48717948717945" as="targetPoint" />
          </mxGeometry>
        </mxCell>
        <mxCell id="doQYq3akADXhrJh_Z-OA-412" value="" style="endArrow=none;html=1;rounded=0;strokeColor=#CCCCCC;" edge="1" parent="1">
          <mxGeometry width="50" height="50" relative="1" as="geometry">
            <mxPoint x="980.5" y="459.5128205128205" as="sourcePoint" />
            <mxPoint x="980.5" y="368.48717948717945" as="targetPoint" />
          </mxGeometry>
        </mxCell>
        <mxCell id="doQYq3akADXhrJh_Z-OA-413" value="" style="endArrow=none;html=1;rounded=0;strokeColor=#CCCCCC;" edge="1" parent="1">
          <mxGeometry width="50" height="50" relative="1" as="geometry">
            <mxPoint x="1008.75" y="459.5128205128205" as="sourcePoint" />
            <mxPoint x="1008.75" y="368.48717948717945" as="targetPoint" />
          </mxGeometry>
        </mxCell>
        <mxCell id="doQYq3akADXhrJh_Z-OA-414" value="" style="endArrow=none;html=1;rounded=0;strokeColor=#CCCCCC;" edge="1" parent="1">
          <mxGeometry width="50" height="50" relative="1" as="geometry">
            <mxPoint x="1037" y="459.5128205128205" as="sourcePoint" />
            <mxPoint x="1037" y="368.48717948717945" as="targetPoint" />
          </mxGeometry>
        </mxCell>
        <mxCell id="doQYq3akADXhrJh_Z-OA-415" value="" style="endArrow=none;html=1;rounded=0;strokeColor=#CCCCCC;" edge="1" parent="1">
          <mxGeometry width="50" height="50" relative="1" as="geometry">
            <mxPoint x="1065.25" y="459.5128205128205" as="sourcePoint" />
            <mxPoint x="1065.25" y="368.48717948717945" as="targetPoint" />
          </mxGeometry>
        </mxCell>
        <mxCell id="doQYq3akADXhrJh_Z-OA-416" value="" style="endArrow=none;html=1;rounded=0;strokeColor=#CCCCCC;" edge="1" parent="1">
          <mxGeometry width="50" height="50" relative="1" as="geometry">
            <mxPoint x="1093.5" y="459.5128205128205" as="sourcePoint" />
            <mxPoint x="1093.5" y="368.48717948717945" as="targetPoint" />
          </mxGeometry>
        </mxCell>
        <mxCell id="doQYq3akADXhrJh_Z-OA-417" value="" style="endArrow=none;html=1;rounded=0;strokeColor=#CCCCCC;" edge="1" parent="1">
          <mxGeometry width="50" height="50" relative="1" as="geometry">
            <mxPoint x="1121.75" y="459.5128205128205" as="sourcePoint" />
            <mxPoint x="1121.75" y="368.48717948717945" as="targetPoint" />
          </mxGeometry>
        </mxCell>
        <mxCell id="doQYq3akADXhrJh_Z-OA-418" value="" style="rounded=0;whiteSpace=wrap;html=1;strokeColor=#666666;fillColor=#666666;gradientColor=none;container=0;" vertex="1" parent="1">
          <mxGeometry x="867.5" y="350.28205128205127" width="28.25" height="127.43589743589743" as="geometry" />
        </mxCell>
        <mxCell id="doQYq3akADXhrJh_Z-OA-419" value="" style="endArrow=none;html=1;rounded=0;strokeColor=#CCCCCC;" edge="1" parent="1">
          <mxGeometry width="50" height="50" relative="1" as="geometry">
            <mxPoint x="924" y="459.5128205128205" as="sourcePoint" />
            <mxPoint x="924" y="368.48717948717945" as="targetPoint" />
          </mxGeometry>
        </mxCell>
        <mxCell id="doQYq3akADXhrJh_Z-OA-420" value="" style="endArrow=none;html=1;rounded=0;exitX=-0.003;exitY=0.149;exitDx=0;exitDy=0;exitPerimeter=0;" edge="1" parent="1">
          <mxGeometry width="50" height="50" relative="1" as="geometry">
            <mxPoint x="895.75" y="368.48717948717945" as="sourcePoint" />
            <mxPoint x="1150" y="368.48717948717945" as="targetPoint" />
          </mxGeometry>
        </mxCell>
        <mxCell id="doQYq3akADXhrJh_Z-OA-421" value="" style="endArrow=none;html=1;rounded=0;" edge="1" parent="1">
          <mxGeometry width="50" height="50" relative="1" as="geometry">
            <mxPoint x="895.75" y="386.6923076923077" as="sourcePoint" />
            <mxPoint x="1150" y="386.6923076923077" as="targetPoint" />
          </mxGeometry>
        </mxCell>
        <mxCell id="doQYq3akADXhrJh_Z-OA-422" value="" style="endArrow=none;html=1;rounded=0;exitX=0;exitY=0.447;exitDx=0;exitDy=0;exitPerimeter=0;" edge="1" parent="1">
          <mxGeometry width="50" height="50" relative="1" as="geometry">
            <mxPoint x="895.75" y="404.89743589743597" as="sourcePoint" />
            <mxPoint x="1150" y="404.8974358974359" as="targetPoint" />
          </mxGeometry>
        </mxCell>
        <mxCell id="doQYq3akADXhrJh_Z-OA-423" value="" style="endArrow=none;html=1;rounded=0;exitX=0;exitY=0.597;exitDx=0;exitDy=0;exitPerimeter=0;" edge="1" parent="1">
          <mxGeometry width="50" height="50" relative="1" as="geometry">
            <mxPoint x="895.75" y="423.1025641025642" as="sourcePoint" />
            <mxPoint x="1150" y="423.1025641025641" as="targetPoint" />
          </mxGeometry>
        </mxCell>
        <mxCell id="doQYq3akADXhrJh_Z-OA-424" value="" style="endArrow=none;html=1;rounded=0;exitX=0;exitY=0.75;exitDx=0;exitDy=0;" edge="1" parent="1">
          <mxGeometry width="50" height="50" relative="1" as="geometry">
            <mxPoint x="895.75" y="441.30769230769226" as="sourcePoint" />
            <mxPoint x="1150" y="441.30769230769226" as="targetPoint" />
          </mxGeometry>
        </mxCell>
        <mxCell id="doQYq3akADXhrJh_Z-OA-425" value="" style="endArrow=none;html=1;rounded=0;entryX=-0.003;entryY=0.895;entryDx=0;entryDy=0;entryPerimeter=0;" edge="1" parent="1">
          <mxGeometry width="50" height="50" relative="1" as="geometry">
            <mxPoint x="1150" y="459.5128205128205" as="sourcePoint" />
            <mxPoint x="895.1143749999999" y="459.5128205128205" as="targetPoint" />
          </mxGeometry>
        </mxCell>
        <mxCell id="doQYq3akADXhrJh_Z-OA-426" value="" style="ellipse;whiteSpace=wrap;html=1;aspect=fixed;strokeColor=#000000;fillColor=#FFFFFF;gradientColor=none;container=0;" vertex="1" parent="1">
          <mxGeometry x="916.9375" y="432.2051282051282" width="14.125" height="14.125" as="geometry" />
        </mxCell>
        <mxCell id="doQYq3akADXhrJh_Z-OA-427" value="" style="ellipse;whiteSpace=wrap;html=1;aspect=fixed;strokeColor=#000000;fillColor=#FFFFFF;gradientColor=none;container=0;" vertex="1" parent="1">
          <mxGeometry x="945.1875" y="395.79487179487177" width="14.125" height="14.125" as="geometry" />
        </mxCell>
        <mxCell id="doQYq3akADXhrJh_Z-OA-428" value="" style="ellipse;whiteSpace=wrap;html=1;aspect=fixed;strokeColor=#000000;fillColor=#FFFFFF;gradientColor=none;container=0;" vertex="1" parent="1">
          <mxGeometry x="973.4375" y="377.5897435897436" width="14.125" height="14.125" as="geometry" />
        </mxCell>
        <mxCell id="doQYq3akADXhrJh_Z-OA-429" value="" style="ellipse;whiteSpace=wrap;html=1;aspect=fixed;strokeColor=#000000;fillColor=#FFFFFF;gradientColor=none;container=0;" vertex="1" parent="1">
          <mxGeometry x="1001.6875" y="359.38461538461536" width="14.125" height="14.125" as="geometry" />
        </mxCell>
        <mxCell id="doQYq3akADXhrJh_Z-OA-430" value="" style="ellipse;whiteSpace=wrap;html=1;aspect=fixed;strokeColor=#000000;fillColor=#FFFFFF;gradientColor=none;container=0;" vertex="1" parent="1">
          <mxGeometry x="1029.9375" y="432.2051282051282" width="14.125" height="14.125" as="geometry" />
        </mxCell>
        <mxCell id="doQYq3akADXhrJh_Z-OA-431" value="" style="ellipse;whiteSpace=wrap;html=1;aspect=fixed;strokeColor=#000000;fillColor=#FFFFFF;gradientColor=none;container=0;" vertex="1" parent="1">
          <mxGeometry x="1058.1875" y="395.79487179487177" width="14.125" height="14.125" as="geometry" />
        </mxCell>
        <mxCell id="doQYq3akADXhrJh_Z-OA-432" value="" style="ellipse;whiteSpace=wrap;html=1;aspect=fixed;strokeColor=#000000;fillColor=#FFFFFF;gradientColor=none;container=0;" vertex="1" parent="1">
          <mxGeometry x="1086.4375" y="377.5897435897436" width="14.125" height="14.125" as="geometry" />
        </mxCell>
        <mxCell id="doQYq3akADXhrJh_Z-OA-433" value="" style="ellipse;whiteSpace=wrap;html=1;aspect=fixed;strokeColor=#000000;fillColor=#FFFFFF;gradientColor=none;container=0;" vertex="1" parent="1">
          <mxGeometry x="1114.6875" y="359.38461538461536" width="14.125" height="14.125" as="geometry" />
        </mxCell>
        <mxCell id="doQYq3akADXhrJh_Z-OA-1036" value="15" style="text;html=1;strokeColor=none;fillColor=none;align=center;verticalAlign=middle;whiteSpace=wrap;rounded=0;fontColor=#FFFFFF;container=0;" vertex="1" parent="1">
          <mxGeometry x="874.5625" y="359.38461538461536" width="14.125" height="18.205128205128204" as="geometry" />
        </mxCell>
        <mxCell id="doQYq3akADXhrJh_Z-OA-435" value="" style="rounded=0;whiteSpace=wrap;html=1;gradientColor=none;fillColor=default;strokeColor=#666666;container=0;" vertex="1" parent="1">
          <mxGeometry x="48.25" y="495.9230769230769" width="254.25000000000003" height="127.43589743589743" as="geometry" />
        </mxCell>
        <mxCell id="doQYq3akADXhrJh_Z-OA-436" value="" style="endArrow=none;html=1;rounded=0;fillColor=#eeeeee;strokeColor=#CCCCCC;" edge="1" parent="1">
          <mxGeometry width="50" height="50" relative="1" as="geometry">
            <mxPoint x="104.75" y="605.1538461538462" as="sourcePoint" />
            <mxPoint x="104.75" y="514.1282051282051" as="targetPoint" />
          </mxGeometry>
        </mxCell>
        <mxCell id="doQYq3akADXhrJh_Z-OA-437" value="" style="endArrow=none;html=1;rounded=0;strokeColor=#CCCCCC;" edge="1" parent="1">
          <mxGeometry width="50" height="50" relative="1" as="geometry">
            <mxPoint x="133" y="605.1538461538462" as="sourcePoint" />
            <mxPoint x="133" y="514.1282051282051" as="targetPoint" />
          </mxGeometry>
        </mxCell>
        <mxCell id="doQYq3akADXhrJh_Z-OA-438" value="" style="endArrow=none;html=1;rounded=0;strokeColor=#CCCCCC;" edge="1" parent="1">
          <mxGeometry width="50" height="50" relative="1" as="geometry">
            <mxPoint x="161.25" y="605.1538461538462" as="sourcePoint" />
            <mxPoint x="161.25" y="514.1282051282051" as="targetPoint" />
          </mxGeometry>
        </mxCell>
        <mxCell id="doQYq3akADXhrJh_Z-OA-439" value="" style="endArrow=none;html=1;rounded=0;strokeColor=#CCCCCC;" edge="1" parent="1">
          <mxGeometry width="50" height="50" relative="1" as="geometry">
            <mxPoint x="189.5" y="605.1538461538462" as="sourcePoint" />
            <mxPoint x="189.5" y="514.1282051282051" as="targetPoint" />
          </mxGeometry>
        </mxCell>
        <mxCell id="doQYq3akADXhrJh_Z-OA-440" value="" style="endArrow=none;html=1;rounded=0;strokeColor=#CCCCCC;" edge="1" parent="1">
          <mxGeometry width="50" height="50" relative="1" as="geometry">
            <mxPoint x="217.75" y="605.1538461538462" as="sourcePoint" />
            <mxPoint x="217.75" y="514.1282051282051" as="targetPoint" />
          </mxGeometry>
        </mxCell>
        <mxCell id="doQYq3akADXhrJh_Z-OA-441" value="" style="endArrow=none;html=1;rounded=0;strokeColor=#CCCCCC;" edge="1" parent="1">
          <mxGeometry width="50" height="50" relative="1" as="geometry">
            <mxPoint x="246" y="605.1538461538462" as="sourcePoint" />
            <mxPoint x="246" y="514.1282051282051" as="targetPoint" />
          </mxGeometry>
        </mxCell>
        <mxCell id="doQYq3akADXhrJh_Z-OA-442" value="" style="endArrow=none;html=1;rounded=0;strokeColor=#CCCCCC;" edge="1" parent="1">
          <mxGeometry width="50" height="50" relative="1" as="geometry">
            <mxPoint x="274.25" y="605.1538461538462" as="sourcePoint" />
            <mxPoint x="274.25" y="514.1282051282051" as="targetPoint" />
          </mxGeometry>
        </mxCell>
        <mxCell id="doQYq3akADXhrJh_Z-OA-443" value="" style="rounded=0;whiteSpace=wrap;html=1;strokeColor=#666666;fillColor=#666666;gradientColor=none;container=0;" vertex="1" parent="1">
          <mxGeometry x="20" y="495.9230769230769" width="28.25" height="127.43589743589743" as="geometry" />
        </mxCell>
        <mxCell id="doQYq3akADXhrJh_Z-OA-444" value="" style="endArrow=none;html=1;rounded=0;strokeColor=#CCCCCC;" edge="1" parent="1">
          <mxGeometry width="50" height="50" relative="1" as="geometry">
            <mxPoint x="76.5" y="605.1538461538462" as="sourcePoint" />
            <mxPoint x="76.5" y="514.1282051282051" as="targetPoint" />
          </mxGeometry>
        </mxCell>
        <mxCell id="doQYq3akADXhrJh_Z-OA-445" value="" style="endArrow=none;html=1;rounded=0;exitX=-0.003;exitY=0.149;exitDx=0;exitDy=0;exitPerimeter=0;" edge="1" parent="1">
          <mxGeometry width="50" height="50" relative="1" as="geometry">
            <mxPoint x="48.24999999999997" y="514.1282051282051" as="sourcePoint" />
            <mxPoint x="302.5" y="514.1282051282051" as="targetPoint" />
          </mxGeometry>
        </mxCell>
        <mxCell id="doQYq3akADXhrJh_Z-OA-446" value="" style="endArrow=none;html=1;rounded=0;" edge="1" parent="1">
          <mxGeometry width="50" height="50" relative="1" as="geometry">
            <mxPoint x="48.25" y="532.3333333333333" as="sourcePoint" />
            <mxPoint x="302.5" y="532.3333333333333" as="targetPoint" />
          </mxGeometry>
        </mxCell>
        <mxCell id="doQYq3akADXhrJh_Z-OA-447" value="" style="endArrow=none;html=1;rounded=0;exitX=0;exitY=0.447;exitDx=0;exitDy=0;exitPerimeter=0;" edge="1" parent="1">
          <mxGeometry width="50" height="50" relative="1" as="geometry">
            <mxPoint x="48.25" y="550.5384615384615" as="sourcePoint" />
            <mxPoint x="302.5" y="550.5384615384615" as="targetPoint" />
          </mxGeometry>
        </mxCell>
        <mxCell id="doQYq3akADXhrJh_Z-OA-448" value="" style="endArrow=none;html=1;rounded=0;exitX=0;exitY=0.597;exitDx=0;exitDy=0;exitPerimeter=0;" edge="1" parent="1">
          <mxGeometry width="50" height="50" relative="1" as="geometry">
            <mxPoint x="48.25" y="568.7435897435898" as="sourcePoint" />
            <mxPoint x="302.5" y="568.7435897435897" as="targetPoint" />
          </mxGeometry>
        </mxCell>
        <mxCell id="doQYq3akADXhrJh_Z-OA-449" value="" style="endArrow=none;html=1;rounded=0;exitX=0;exitY=0.75;exitDx=0;exitDy=0;" edge="1" parent="1">
          <mxGeometry width="50" height="50" relative="1" as="geometry">
            <mxPoint x="48.25" y="586.9487179487179" as="sourcePoint" />
            <mxPoint x="302.5" y="586.9487179487179" as="targetPoint" />
          </mxGeometry>
        </mxCell>
        <mxCell id="doQYq3akADXhrJh_Z-OA-450" value="" style="endArrow=none;html=1;rounded=0;entryX=-0.003;entryY=0.895;entryDx=0;entryDy=0;entryPerimeter=0;" edge="1" parent="1">
          <mxGeometry width="50" height="50" relative="1" as="geometry">
            <mxPoint x="302.5" y="605.1538461538462" as="sourcePoint" />
            <mxPoint x="47.61437499999994" y="605.1538461538462" as="targetPoint" />
          </mxGeometry>
        </mxCell>
        <mxCell id="doQYq3akADXhrJh_Z-OA-451" value="" style="ellipse;whiteSpace=wrap;html=1;aspect=fixed;strokeColor=#000000;fillColor=#FFFFFF;gradientColor=none;container=0;" vertex="1" parent="1">
          <mxGeometry x="69.4375" y="577.8461538461538" width="14.125" height="14.125" as="geometry" />
        </mxCell>
        <mxCell id="doQYq3akADXhrJh_Z-OA-452" value="" style="ellipse;whiteSpace=wrap;html=1;aspect=fixed;strokeColor=#000000;fillColor=#FFFFFF;gradientColor=none;container=0;" vertex="1" parent="1">
          <mxGeometry x="97.6875" y="559.6410256410256" width="14.125" height="14.125" as="geometry" />
        </mxCell>
        <mxCell id="doQYq3akADXhrJh_Z-OA-453" value="" style="ellipse;whiteSpace=wrap;html=1;aspect=fixed;strokeColor=#000000;fillColor=#FFFFFF;gradientColor=none;container=0;" vertex="1" parent="1">
          <mxGeometry x="125.9375" y="541.4358974358975" width="14.125" height="14.125" as="geometry" />
        </mxCell>
        <mxCell id="doQYq3akADXhrJh_Z-OA-454" value="" style="ellipse;whiteSpace=wrap;html=1;aspect=fixed;strokeColor=#000000;fillColor=#FFFFFF;gradientColor=none;container=0;" vertex="1" parent="1">
          <mxGeometry x="154.1875" y="523.2307692307692" width="14.125" height="14.125" as="geometry" />
        </mxCell>
        <mxCell id="doQYq3akADXhrJh_Z-OA-455" value="" style="ellipse;whiteSpace=wrap;html=1;aspect=fixed;strokeColor=#000000;fillColor=#FFFFFF;gradientColor=none;container=0;" vertex="1" parent="1">
          <mxGeometry x="182.4375" y="596.051282051282" width="14.125" height="14.125" as="geometry" />
        </mxCell>
        <mxCell id="doQYq3akADXhrJh_Z-OA-456" value="" style="ellipse;whiteSpace=wrap;html=1;aspect=fixed;strokeColor=#000000;fillColor=#FFFFFF;gradientColor=none;container=0;" vertex="1" parent="1">
          <mxGeometry x="210.6875" y="559.6410256410256" width="14.125" height="14.125" as="geometry" />
        </mxCell>
        <mxCell id="doQYq3akADXhrJh_Z-OA-457" value="" style="ellipse;whiteSpace=wrap;html=1;aspect=fixed;strokeColor=#000000;fillColor=#FFFFFF;gradientColor=none;container=0;" vertex="1" parent="1">
          <mxGeometry x="238.9375" y="541.4358974358975" width="14.125" height="14.125" as="geometry" />
        </mxCell>
        <mxCell id="doQYq3akADXhrJh_Z-OA-458" value="" style="ellipse;whiteSpace=wrap;html=1;aspect=fixed;strokeColor=#000000;fillColor=#FFFFFF;gradientColor=none;container=0;" vertex="1" parent="1">
          <mxGeometry x="267.1875" y="523.2307692307692" width="14.125" height="14.125" as="geometry" />
        </mxCell>
        <mxCell id="doQYq3akADXhrJh_Z-OA-1037" value="16" style="text;html=1;strokeColor=none;fillColor=none;align=center;verticalAlign=middle;whiteSpace=wrap;rounded=0;fontColor=#FFFFFF;container=0;" vertex="1" parent="1">
          <mxGeometry x="27.0625" y="505.025641025641" width="14.125" height="18.205128205128204" as="geometry" />
        </mxCell>
        <mxCell id="doQYq3akADXhrJh_Z-OA-460" value="" style="rounded=0;whiteSpace=wrap;html=1;gradientColor=none;fillColor=default;strokeColor=#666666;container=0;" vertex="1" parent="1">
          <mxGeometry x="330.75" y="495.9230769230769" width="254.25000000000003" height="127.43589743589743" as="geometry" />
        </mxCell>
        <mxCell id="doQYq3akADXhrJh_Z-OA-461" value="" style="endArrow=none;html=1;rounded=0;fillColor=#eeeeee;strokeColor=#CCCCCC;" edge="1" parent="1">
          <mxGeometry width="50" height="50" relative="1" as="geometry">
            <mxPoint x="387.25" y="605.1538461538462" as="sourcePoint" />
            <mxPoint x="387.25" y="514.1282051282051" as="targetPoint" />
          </mxGeometry>
        </mxCell>
        <mxCell id="doQYq3akADXhrJh_Z-OA-462" value="" style="endArrow=none;html=1;rounded=0;strokeColor=#CCCCCC;" edge="1" parent="1">
          <mxGeometry width="50" height="50" relative="1" as="geometry">
            <mxPoint x="415.5" y="605.1538461538462" as="sourcePoint" />
            <mxPoint x="415.5" y="514.1282051282051" as="targetPoint" />
          </mxGeometry>
        </mxCell>
        <mxCell id="doQYq3akADXhrJh_Z-OA-463" value="" style="endArrow=none;html=1;rounded=0;strokeColor=#CCCCCC;" edge="1" parent="1">
          <mxGeometry width="50" height="50" relative="1" as="geometry">
            <mxPoint x="443.75" y="605.1538461538462" as="sourcePoint" />
            <mxPoint x="443.75" y="514.1282051282051" as="targetPoint" />
          </mxGeometry>
        </mxCell>
        <mxCell id="doQYq3akADXhrJh_Z-OA-464" value="" style="endArrow=none;html=1;rounded=0;strokeColor=#CCCCCC;" edge="1" parent="1">
          <mxGeometry width="50" height="50" relative="1" as="geometry">
            <mxPoint x="472" y="605.1538461538462" as="sourcePoint" />
            <mxPoint x="472" y="514.1282051282051" as="targetPoint" />
          </mxGeometry>
        </mxCell>
        <mxCell id="doQYq3akADXhrJh_Z-OA-465" value="" style="endArrow=none;html=1;rounded=0;strokeColor=#CCCCCC;" edge="1" parent="1">
          <mxGeometry width="50" height="50" relative="1" as="geometry">
            <mxPoint x="500.25" y="605.1538461538462" as="sourcePoint" />
            <mxPoint x="500.25" y="514.1282051282051" as="targetPoint" />
          </mxGeometry>
        </mxCell>
        <mxCell id="doQYq3akADXhrJh_Z-OA-466" value="" style="endArrow=none;html=1;rounded=0;strokeColor=#CCCCCC;" edge="1" parent="1">
          <mxGeometry width="50" height="50" relative="1" as="geometry">
            <mxPoint x="528.5" y="605.1538461538462" as="sourcePoint" />
            <mxPoint x="528.5" y="514.1282051282051" as="targetPoint" />
          </mxGeometry>
        </mxCell>
        <mxCell id="doQYq3akADXhrJh_Z-OA-467" value="" style="endArrow=none;html=1;rounded=0;strokeColor=#CCCCCC;" edge="1" parent="1">
          <mxGeometry width="50" height="50" relative="1" as="geometry">
            <mxPoint x="556.75" y="605.1538461538462" as="sourcePoint" />
            <mxPoint x="556.75" y="514.1282051282051" as="targetPoint" />
          </mxGeometry>
        </mxCell>
        <mxCell id="doQYq3akADXhrJh_Z-OA-468" value="" style="rounded=0;whiteSpace=wrap;html=1;strokeColor=#666666;fillColor=#666666;gradientColor=none;container=0;" vertex="1" parent="1">
          <mxGeometry x="302.5" y="495.9230769230769" width="28.25" height="127.43589743589743" as="geometry" />
        </mxCell>
        <mxCell id="doQYq3akADXhrJh_Z-OA-469" value="" style="endArrow=none;html=1;rounded=0;strokeColor=#CCCCCC;" edge="1" parent="1">
          <mxGeometry width="50" height="50" relative="1" as="geometry">
            <mxPoint x="359" y="605.1538461538462" as="sourcePoint" />
            <mxPoint x="359" y="514.1282051282051" as="targetPoint" />
          </mxGeometry>
        </mxCell>
        <mxCell id="doQYq3akADXhrJh_Z-OA-470" value="" style="endArrow=none;html=1;rounded=0;exitX=-0.003;exitY=0.149;exitDx=0;exitDy=0;exitPerimeter=0;" edge="1" parent="1">
          <mxGeometry width="50" height="50" relative="1" as="geometry">
            <mxPoint x="330.75" y="514.1282051282051" as="sourcePoint" />
            <mxPoint x="585" y="514.1282051282051" as="targetPoint" />
          </mxGeometry>
        </mxCell>
        <mxCell id="doQYq3akADXhrJh_Z-OA-471" value="" style="endArrow=none;html=1;rounded=0;" edge="1" parent="1">
          <mxGeometry width="50" height="50" relative="1" as="geometry">
            <mxPoint x="330.75" y="532.3333333333333" as="sourcePoint" />
            <mxPoint x="585" y="532.3333333333333" as="targetPoint" />
          </mxGeometry>
        </mxCell>
        <mxCell id="doQYq3akADXhrJh_Z-OA-472" value="" style="endArrow=none;html=1;rounded=0;exitX=0;exitY=0.447;exitDx=0;exitDy=0;exitPerimeter=0;" edge="1" parent="1">
          <mxGeometry width="50" height="50" relative="1" as="geometry">
            <mxPoint x="330.75" y="550.5384615384615" as="sourcePoint" />
            <mxPoint x="585" y="550.5384615384615" as="targetPoint" />
          </mxGeometry>
        </mxCell>
        <mxCell id="doQYq3akADXhrJh_Z-OA-473" value="" style="endArrow=none;html=1;rounded=0;exitX=0;exitY=0.597;exitDx=0;exitDy=0;exitPerimeter=0;" edge="1" parent="1">
          <mxGeometry width="50" height="50" relative="1" as="geometry">
            <mxPoint x="330.75" y="568.7435897435898" as="sourcePoint" />
            <mxPoint x="585" y="568.7435897435897" as="targetPoint" />
          </mxGeometry>
        </mxCell>
        <mxCell id="doQYq3akADXhrJh_Z-OA-474" value="" style="endArrow=none;html=1;rounded=0;exitX=0;exitY=0.75;exitDx=0;exitDy=0;" edge="1" parent="1">
          <mxGeometry width="50" height="50" relative="1" as="geometry">
            <mxPoint x="330.75" y="586.9487179487179" as="sourcePoint" />
            <mxPoint x="585" y="586.9487179487179" as="targetPoint" />
          </mxGeometry>
        </mxCell>
        <mxCell id="doQYq3akADXhrJh_Z-OA-475" value="" style="endArrow=none;html=1;rounded=0;entryX=-0.003;entryY=0.895;entryDx=0;entryDy=0;entryPerimeter=0;" edge="1" parent="1">
          <mxGeometry width="50" height="50" relative="1" as="geometry">
            <mxPoint x="585" y="605.1538461538462" as="sourcePoint" />
            <mxPoint x="330.11437499999994" y="605.1538461538462" as="targetPoint" />
          </mxGeometry>
        </mxCell>
        <mxCell id="doQYq3akADXhrJh_Z-OA-476" value="" style="ellipse;whiteSpace=wrap;html=1;aspect=fixed;strokeColor=#000000;fillColor=#FFFFFF;gradientColor=none;container=0;" vertex="1" parent="1">
          <mxGeometry x="351.9375" y="596.051282051282" width="14.125" height="14.125" as="geometry" />
        </mxCell>
        <mxCell id="doQYq3akADXhrJh_Z-OA-477" value="" style="ellipse;whiteSpace=wrap;html=1;aspect=fixed;strokeColor=#000000;fillColor=#FFFFFF;gradientColor=none;container=0;" vertex="1" parent="1">
          <mxGeometry x="380.1875" y="577.8461538461538" width="14.125" height="14.125" as="geometry" />
        </mxCell>
        <mxCell id="doQYq3akADXhrJh_Z-OA-478" value="" style="ellipse;whiteSpace=wrap;html=1;aspect=fixed;strokeColor=#000000;fillColor=#FFFFFF;gradientColor=none;container=0;" vertex="1" parent="1">
          <mxGeometry x="408.4375" y="559.6410256410256" width="14.125" height="14.125" as="geometry" />
        </mxCell>
        <mxCell id="doQYq3akADXhrJh_Z-OA-479" value="" style="ellipse;whiteSpace=wrap;html=1;aspect=fixed;strokeColor=#000000;fillColor=#FFFFFF;gradientColor=none;container=0;" vertex="1" parent="1">
          <mxGeometry x="436.6875" y="541.4358974358975" width="14.125" height="14.125" as="geometry" />
        </mxCell>
        <mxCell id="doQYq3akADXhrJh_Z-OA-480" value="" style="ellipse;whiteSpace=wrap;html=1;aspect=fixed;strokeColor=#000000;fillColor=#FFFFFF;gradientColor=none;container=0;" vertex="1" parent="1">
          <mxGeometry x="464.9375" y="523.2307692307692" width="14.125" height="14.125" as="geometry" />
        </mxCell>
        <mxCell id="doQYq3akADXhrJh_Z-OA-481" value="" style="ellipse;whiteSpace=wrap;html=1;aspect=fixed;strokeColor=#000000;fillColor=#FFFFFF;gradientColor=none;container=0;" vertex="1" parent="1">
          <mxGeometry x="493.1875" y="505.025641025641" width="14.125" height="14.125" as="geometry" />
        </mxCell>
        <mxCell id="doQYq3akADXhrJh_Z-OA-482" value="" style="ellipse;whiteSpace=wrap;html=1;aspect=fixed;strokeColor=#000000;fillColor=#FFFFFF;gradientColor=none;container=0;" vertex="1" parent="1">
          <mxGeometry x="521.4375" y="523.2307692307692" width="14.125" height="14.125" as="geometry" />
        </mxCell>
        <mxCell id="doQYq3akADXhrJh_Z-OA-483" value="" style="ellipse;whiteSpace=wrap;html=1;aspect=fixed;strokeColor=#000000;fillColor=#FFFFFF;gradientColor=none;container=0;" vertex="1" parent="1">
          <mxGeometry x="549.6875" y="541.4358974358975" width="14.125" height="14.125" as="geometry" />
        </mxCell>
        <mxCell id="doQYq3akADXhrJh_Z-OA-1038" value="17&lt;span style=&quot;color: rgba(0 , 0 , 0 , 0) ; font-family: monospace ; font-size: 0px&quot;&gt;%3CmxGraphModel%3E%3Croot%3E%3CmxCell%20id%3D%220%22%2F%3E%3CmxCell%20id%3D%221%22%20parent%3D%220%22%2F%3E%3CmxCell%20id%3D%222%22%20value%3D%225%22%20style%3D%22text%3Bhtml%3D1%3BstrokeColor%3Dnone%3BfillColor%3Dnone%3Balign%3Dcenter%3BverticalAlign%3Dmiddle%3BwhiteSpace%3Dwrap%3Brounded%3D0%3BfontColor%3D%23FFFFFF%3B%22%20vertex%3D%221%22%20parent%3D%221%22%3E%3CmxGeometry%20x%3D%22225%22%20y%3D%2295%22%20width%3D%2210%22%20height%3D%2210%22%20as%3D%22geometry%22%2F%3E%3C%2FmxCell%3E%3C%2Froot%3E%3C%2FmxGraphModel%3E&lt;/span&gt;" style="text;html=1;strokeColor=none;fillColor=none;align=center;verticalAlign=middle;whiteSpace=wrap;rounded=0;fontColor=#FFFFFF;container=0;" vertex="1" parent="1">
          <mxGeometry x="309.5625" y="505.025641025641" width="14.125" height="18.205128205128204" as="geometry" />
        </mxCell>
        <mxCell id="doQYq3akADXhrJh_Z-OA-510" value="" style="rounded=0;whiteSpace=wrap;html=1;gradientColor=none;fillColor=default;strokeColor=#666666;container=0;" vertex="1" parent="1">
          <mxGeometry x="613.25" y="495.9230769230769" width="254.25000000000003" height="127.43589743589743" as="geometry" />
        </mxCell>
        <mxCell id="doQYq3akADXhrJh_Z-OA-511" value="" style="endArrow=none;html=1;rounded=0;fillColor=#eeeeee;strokeColor=#CCCCCC;" edge="1" parent="1">
          <mxGeometry width="50" height="50" relative="1" as="geometry">
            <mxPoint x="669.75" y="605.1538461538462" as="sourcePoint" />
            <mxPoint x="669.75" y="514.1282051282051" as="targetPoint" />
          </mxGeometry>
        </mxCell>
        <mxCell id="doQYq3akADXhrJh_Z-OA-512" value="" style="endArrow=none;html=1;rounded=0;strokeColor=#CCCCCC;" edge="1" parent="1">
          <mxGeometry width="50" height="50" relative="1" as="geometry">
            <mxPoint x="698" y="605.1538461538462" as="sourcePoint" />
            <mxPoint x="698" y="514.1282051282051" as="targetPoint" />
          </mxGeometry>
        </mxCell>
        <mxCell id="doQYq3akADXhrJh_Z-OA-513" value="" style="endArrow=none;html=1;rounded=0;strokeColor=#CCCCCC;" edge="1" parent="1">
          <mxGeometry width="50" height="50" relative="1" as="geometry">
            <mxPoint x="726.25" y="605.1538461538462" as="sourcePoint" />
            <mxPoint x="726.25" y="514.1282051282051" as="targetPoint" />
          </mxGeometry>
        </mxCell>
        <mxCell id="doQYq3akADXhrJh_Z-OA-514" value="" style="endArrow=none;html=1;rounded=0;strokeColor=#CCCCCC;" edge="1" parent="1">
          <mxGeometry width="50" height="50" relative="1" as="geometry">
            <mxPoint x="754.5" y="605.1538461538462" as="sourcePoint" />
            <mxPoint x="754.5" y="514.1282051282051" as="targetPoint" />
          </mxGeometry>
        </mxCell>
        <mxCell id="doQYq3akADXhrJh_Z-OA-515" value="" style="endArrow=none;html=1;rounded=0;strokeColor=#CCCCCC;" edge="1" parent="1">
          <mxGeometry width="50" height="50" relative="1" as="geometry">
            <mxPoint x="782.75" y="605.1538461538462" as="sourcePoint" />
            <mxPoint x="782.75" y="514.1282051282051" as="targetPoint" />
          </mxGeometry>
        </mxCell>
        <mxCell id="doQYq3akADXhrJh_Z-OA-516" value="" style="endArrow=none;html=1;rounded=0;strokeColor=#CCCCCC;" edge="1" parent="1">
          <mxGeometry width="50" height="50" relative="1" as="geometry">
            <mxPoint x="811" y="605.1538461538462" as="sourcePoint" />
            <mxPoint x="811" y="514.1282051282051" as="targetPoint" />
          </mxGeometry>
        </mxCell>
        <mxCell id="doQYq3akADXhrJh_Z-OA-517" value="" style="endArrow=none;html=1;rounded=0;strokeColor=#CCCCCC;" edge="1" parent="1">
          <mxGeometry width="50" height="50" relative="1" as="geometry">
            <mxPoint x="839.25" y="605.1538461538462" as="sourcePoint" />
            <mxPoint x="839.25" y="514.1282051282051" as="targetPoint" />
          </mxGeometry>
        </mxCell>
        <mxCell id="doQYq3akADXhrJh_Z-OA-518" value="" style="rounded=0;whiteSpace=wrap;html=1;strokeColor=#666666;fillColor=#666666;gradientColor=none;container=0;" vertex="1" parent="1">
          <mxGeometry x="585" y="495.9230769230769" width="28.25" height="127.43589743589743" as="geometry" />
        </mxCell>
        <mxCell id="doQYq3akADXhrJh_Z-OA-519" value="" style="endArrow=none;html=1;rounded=0;strokeColor=#CCCCCC;" edge="1" parent="1">
          <mxGeometry width="50" height="50" relative="1" as="geometry">
            <mxPoint x="641.5" y="605.1538461538462" as="sourcePoint" />
            <mxPoint x="641.5" y="514.1282051282051" as="targetPoint" />
          </mxGeometry>
        </mxCell>
        <mxCell id="doQYq3akADXhrJh_Z-OA-520" value="" style="endArrow=none;html=1;rounded=0;exitX=-0.003;exitY=0.149;exitDx=0;exitDy=0;exitPerimeter=0;" edge="1" parent="1">
          <mxGeometry width="50" height="50" relative="1" as="geometry">
            <mxPoint x="613.25" y="514.1282051282051" as="sourcePoint" />
            <mxPoint x="867.5" y="514.1282051282051" as="targetPoint" />
          </mxGeometry>
        </mxCell>
        <mxCell id="doQYq3akADXhrJh_Z-OA-521" value="" style="endArrow=none;html=1;rounded=0;" edge="1" parent="1">
          <mxGeometry width="50" height="50" relative="1" as="geometry">
            <mxPoint x="613.25" y="532.3333333333333" as="sourcePoint" />
            <mxPoint x="867.5" y="532.3333333333333" as="targetPoint" />
          </mxGeometry>
        </mxCell>
        <mxCell id="doQYq3akADXhrJh_Z-OA-522" value="" style="endArrow=none;html=1;rounded=0;exitX=0;exitY=0.447;exitDx=0;exitDy=0;exitPerimeter=0;" edge="1" parent="1">
          <mxGeometry width="50" height="50" relative="1" as="geometry">
            <mxPoint x="613.25" y="550.5384615384615" as="sourcePoint" />
            <mxPoint x="867.5" y="550.5384615384615" as="targetPoint" />
          </mxGeometry>
        </mxCell>
        <mxCell id="doQYq3akADXhrJh_Z-OA-523" value="" style="endArrow=none;html=1;rounded=0;exitX=0;exitY=0.597;exitDx=0;exitDy=0;exitPerimeter=0;" edge="1" parent="1">
          <mxGeometry width="50" height="50" relative="1" as="geometry">
            <mxPoint x="613.25" y="568.7435897435898" as="sourcePoint" />
            <mxPoint x="867.5" y="568.7435897435897" as="targetPoint" />
          </mxGeometry>
        </mxCell>
        <mxCell id="doQYq3akADXhrJh_Z-OA-524" value="" style="endArrow=none;html=1;rounded=0;exitX=0;exitY=0.75;exitDx=0;exitDy=0;" edge="1" parent="1">
          <mxGeometry width="50" height="50" relative="1" as="geometry">
            <mxPoint x="613.25" y="586.9487179487179" as="sourcePoint" />
            <mxPoint x="867.5" y="586.9487179487179" as="targetPoint" />
          </mxGeometry>
        </mxCell>
        <mxCell id="doQYq3akADXhrJh_Z-OA-525" value="" style="endArrow=none;html=1;rounded=0;entryX=-0.003;entryY=0.895;entryDx=0;entryDy=0;entryPerimeter=0;" edge="1" parent="1">
          <mxGeometry width="50" height="50" relative="1" as="geometry">
            <mxPoint x="867.5" y="605.1538461538462" as="sourcePoint" />
            <mxPoint x="612.6143749999999" y="605.1538461538462" as="targetPoint" />
          </mxGeometry>
        </mxCell>
        <mxCell id="doQYq3akADXhrJh_Z-OA-526" value="" style="ellipse;whiteSpace=wrap;html=1;aspect=fixed;strokeColor=#000000;fillColor=#FFFFFF;gradientColor=none;container=0;" vertex="1" parent="1">
          <mxGeometry x="634.4375" y="559.6410256410256" width="14.125" height="14.125" as="geometry" />
        </mxCell>
        <mxCell id="doQYq3akADXhrJh_Z-OA-527" value="" style="ellipse;whiteSpace=wrap;html=1;aspect=fixed;strokeColor=#000000;fillColor=#FFFFFF;gradientColor=none;container=0;" vertex="1" parent="1">
          <mxGeometry x="662.6875" y="541.4358974358975" width="14.125" height="14.125" as="geometry" />
        </mxCell>
        <mxCell id="doQYq3akADXhrJh_Z-OA-528" value="" style="ellipse;whiteSpace=wrap;html=1;aspect=fixed;strokeColor=#000000;fillColor=#FFFFFF;gradientColor=none;container=0;" vertex="1" parent="1">
          <mxGeometry x="690.9375" y="577.8461538461538" width="14.125" height="14.125" as="geometry" />
        </mxCell>
        <mxCell id="doQYq3akADXhrJh_Z-OA-529" value="" style="ellipse;whiteSpace=wrap;html=1;aspect=fixed;strokeColor=#000000;fillColor=#FFFFFF;gradientColor=none;container=0;" vertex="1" parent="1">
          <mxGeometry x="719.1875" y="559.6410256410256" width="14.125" height="14.125" as="geometry" />
        </mxCell>
        <mxCell id="doQYq3akADXhrJh_Z-OA-530" value="" style="ellipse;whiteSpace=wrap;html=1;aspect=fixed;strokeColor=#000000;fillColor=#FFFFFF;gradientColor=none;container=0;" vertex="1" parent="1">
          <mxGeometry x="747.4375" y="596.051282051282" width="14.125" height="14.125" as="geometry" />
        </mxCell>
        <mxCell id="doQYq3akADXhrJh_Z-OA-531" value="" style="ellipse;whiteSpace=wrap;html=1;aspect=fixed;strokeColor=#000000;fillColor=#FFFFFF;gradientColor=none;container=0;" vertex="1" parent="1">
          <mxGeometry x="775.6875" y="577.8461538461538" width="14.125" height="14.125" as="geometry" />
        </mxCell>
        <mxCell id="doQYq3akADXhrJh_Z-OA-532" value="" style="ellipse;whiteSpace=wrap;html=1;aspect=fixed;strokeColor=#000000;fillColor=#FFFFFF;gradientColor=none;container=0;" vertex="1" parent="1">
          <mxGeometry x="803.9375" y="559.6410256410256" width="14.125" height="14.125" as="geometry" />
        </mxCell>
        <mxCell id="doQYq3akADXhrJh_Z-OA-533" value="" style="ellipse;whiteSpace=wrap;html=1;aspect=fixed;strokeColor=#000000;fillColor=#FFFFFF;gradientColor=none;container=0;" vertex="1" parent="1">
          <mxGeometry x="832.1875" y="541.4358974358975" width="14.125" height="14.125" as="geometry" />
        </mxCell>
        <mxCell id="doQYq3akADXhrJh_Z-OA-1039" value="18" style="text;html=1;strokeColor=none;fillColor=none;align=center;verticalAlign=middle;whiteSpace=wrap;rounded=0;fontColor=#FFFFFF;container=0;" vertex="1" parent="1">
          <mxGeometry x="592.0625" y="505.025641025641" width="14.125" height="18.205128205128204" as="geometry" />
        </mxCell>
        <mxCell id="doQYq3akADXhrJh_Z-OA-536" value="" style="rounded=0;whiteSpace=wrap;html=1;gradientColor=none;fillColor=default;strokeColor=#666666;container=0;" vertex="1" parent="1">
          <mxGeometry x="48.25" y="641.5641025641025" width="254.25000000000003" height="127.43589743589743" as="geometry" />
        </mxCell>
        <mxCell id="doQYq3akADXhrJh_Z-OA-537" value="" style="endArrow=none;html=1;rounded=0;fillColor=#eeeeee;strokeColor=#CCCCCC;" edge="1" parent="1">
          <mxGeometry width="50" height="50" relative="1" as="geometry">
            <mxPoint x="104.75" y="750.7948717948718" as="sourcePoint" />
            <mxPoint x="104.75" y="659.7692307692307" as="targetPoint" />
          </mxGeometry>
        </mxCell>
        <mxCell id="doQYq3akADXhrJh_Z-OA-538" value="" style="endArrow=none;html=1;rounded=0;strokeColor=#CCCCCC;" edge="1" parent="1">
          <mxGeometry width="50" height="50" relative="1" as="geometry">
            <mxPoint x="133" y="750.7948717948718" as="sourcePoint" />
            <mxPoint x="133" y="659.7692307692307" as="targetPoint" />
          </mxGeometry>
        </mxCell>
        <mxCell id="doQYq3akADXhrJh_Z-OA-539" value="" style="endArrow=none;html=1;rounded=0;strokeColor=#CCCCCC;" edge="1" parent="1">
          <mxGeometry width="50" height="50" relative="1" as="geometry">
            <mxPoint x="161.25" y="750.7948717948718" as="sourcePoint" />
            <mxPoint x="161.25" y="659.7692307692307" as="targetPoint" />
          </mxGeometry>
        </mxCell>
        <mxCell id="doQYq3akADXhrJh_Z-OA-540" value="" style="endArrow=none;html=1;rounded=0;strokeColor=#CCCCCC;" edge="1" parent="1">
          <mxGeometry width="50" height="50" relative="1" as="geometry">
            <mxPoint x="189.5" y="750.7948717948718" as="sourcePoint" />
            <mxPoint x="189.5" y="659.7692307692307" as="targetPoint" />
          </mxGeometry>
        </mxCell>
        <mxCell id="doQYq3akADXhrJh_Z-OA-541" value="" style="endArrow=none;html=1;rounded=0;strokeColor=#CCCCCC;" edge="1" parent="1">
          <mxGeometry width="50" height="50" relative="1" as="geometry">
            <mxPoint x="217.75" y="750.7948717948718" as="sourcePoint" />
            <mxPoint x="217.75" y="659.7692307692307" as="targetPoint" />
          </mxGeometry>
        </mxCell>
        <mxCell id="doQYq3akADXhrJh_Z-OA-542" value="" style="endArrow=none;html=1;rounded=0;strokeColor=#CCCCCC;" edge="1" parent="1">
          <mxGeometry width="50" height="50" relative="1" as="geometry">
            <mxPoint x="246" y="750.7948717948718" as="sourcePoint" />
            <mxPoint x="246" y="659.7692307692307" as="targetPoint" />
          </mxGeometry>
        </mxCell>
        <mxCell id="doQYq3akADXhrJh_Z-OA-543" value="" style="endArrow=none;html=1;rounded=0;strokeColor=#CCCCCC;" edge="1" parent="1">
          <mxGeometry width="50" height="50" relative="1" as="geometry">
            <mxPoint x="274.25" y="750.7948717948718" as="sourcePoint" />
            <mxPoint x="274.25" y="659.7692307692307" as="targetPoint" />
          </mxGeometry>
        </mxCell>
        <mxCell id="doQYq3akADXhrJh_Z-OA-544" value="" style="rounded=0;whiteSpace=wrap;html=1;strokeColor=#666666;fillColor=#666666;gradientColor=none;container=0;" vertex="1" parent="1">
          <mxGeometry x="20" y="641.5641025641025" width="28.25" height="127.43589743589743" as="geometry" />
        </mxCell>
        <mxCell id="doQYq3akADXhrJh_Z-OA-545" value="" style="endArrow=none;html=1;rounded=0;strokeColor=#CCCCCC;" edge="1" parent="1">
          <mxGeometry width="50" height="50" relative="1" as="geometry">
            <mxPoint x="76.5" y="750.7948717948718" as="sourcePoint" />
            <mxPoint x="76.5" y="659.7692307692307" as="targetPoint" />
          </mxGeometry>
        </mxCell>
        <mxCell id="doQYq3akADXhrJh_Z-OA-546" value="" style="endArrow=none;html=1;rounded=0;exitX=-0.003;exitY=0.149;exitDx=0;exitDy=0;exitPerimeter=0;" edge="1" parent="1">
          <mxGeometry width="50" height="50" relative="1" as="geometry">
            <mxPoint x="48.24999999999997" y="659.7692307692307" as="sourcePoint" />
            <mxPoint x="302.5" y="659.7692307692307" as="targetPoint" />
          </mxGeometry>
        </mxCell>
        <mxCell id="doQYq3akADXhrJh_Z-OA-547" value="" style="endArrow=none;html=1;rounded=0;" edge="1" parent="1">
          <mxGeometry width="50" height="50" relative="1" as="geometry">
            <mxPoint x="48.25" y="677.9743589743589" as="sourcePoint" />
            <mxPoint x="302.5" y="677.9743589743589" as="targetPoint" />
          </mxGeometry>
        </mxCell>
        <mxCell id="doQYq3akADXhrJh_Z-OA-548" value="" style="endArrow=none;html=1;rounded=0;exitX=0;exitY=0.447;exitDx=0;exitDy=0;exitPerimeter=0;" edge="1" parent="1">
          <mxGeometry width="50" height="50" relative="1" as="geometry">
            <mxPoint x="48.25" y="696.1794871794872" as="sourcePoint" />
            <mxPoint x="302.5" y="696.1794871794872" as="targetPoint" />
          </mxGeometry>
        </mxCell>
        <mxCell id="doQYq3akADXhrJh_Z-OA-549" value="" style="endArrow=none;html=1;rounded=0;exitX=0;exitY=0.597;exitDx=0;exitDy=0;exitPerimeter=0;" edge="1" parent="1">
          <mxGeometry width="50" height="50" relative="1" as="geometry">
            <mxPoint x="48.25" y="714.3846153846155" as="sourcePoint" />
            <mxPoint x="302.5" y="714.3846153846154" as="targetPoint" />
          </mxGeometry>
        </mxCell>
        <mxCell id="doQYq3akADXhrJh_Z-OA-550" value="" style="endArrow=none;html=1;rounded=0;exitX=0;exitY=0.75;exitDx=0;exitDy=0;" edge="1" parent="1">
          <mxGeometry width="50" height="50" relative="1" as="geometry">
            <mxPoint x="48.25" y="732.5897435897435" as="sourcePoint" />
            <mxPoint x="302.5" y="732.5897435897435" as="targetPoint" />
          </mxGeometry>
        </mxCell>
        <mxCell id="doQYq3akADXhrJh_Z-OA-551" value="" style="endArrow=none;html=1;rounded=0;entryX=-0.003;entryY=0.895;entryDx=0;entryDy=0;entryPerimeter=0;" edge="1" parent="1">
          <mxGeometry width="50" height="50" relative="1" as="geometry">
            <mxPoint x="302.5" y="750.7948717948718" as="sourcePoint" />
            <mxPoint x="47.61437499999994" y="750.7948717948718" as="targetPoint" />
          </mxGeometry>
        </mxCell>
        <mxCell id="doQYq3akADXhrJh_Z-OA-552" value="" style="ellipse;whiteSpace=wrap;html=1;aspect=fixed;strokeColor=#000000;fillColor=#FFFFFF;gradientColor=none;container=0;" vertex="1" parent="1">
          <mxGeometry x="69.4375" y="670.6923076923076" width="14.125" height="14.125" as="geometry" />
        </mxCell>
        <mxCell id="doQYq3akADXhrJh_Z-OA-553" value="" style="ellipse;whiteSpace=wrap;html=1;aspect=fixed;strokeColor=#000000;fillColor=#FFFFFF;gradientColor=none;container=0;" vertex="1" parent="1">
          <mxGeometry x="97.6875" y="650.6666666666666" width="14.125" height="14.125" as="geometry" />
        </mxCell>
        <mxCell id="doQYq3akADXhrJh_Z-OA-554" value="" style="ellipse;whiteSpace=wrap;html=1;aspect=fixed;strokeColor=#000000;fillColor=#FFFFFF;gradientColor=none;container=0;" vertex="1" parent="1">
          <mxGeometry x="125.9375" y="650.6666666666666" width="14.125" height="14.125" as="geometry" />
        </mxCell>
        <mxCell id="doQYq3akADXhrJh_Z-OA-555" value="" style="ellipse;whiteSpace=wrap;html=1;aspect=fixed;strokeColor=#000000;fillColor=#FFFFFF;gradientColor=none;container=0;" vertex="1" parent="1">
          <mxGeometry x="154.1875" y="650.6666666666666" width="14.125" height="14.125" as="geometry" />
        </mxCell>
        <mxCell id="doQYq3akADXhrJh_Z-OA-556" value="" style="ellipse;whiteSpace=wrap;html=1;aspect=fixed;strokeColor=#000000;fillColor=#FFFFFF;gradientColor=none;container=0;" vertex="1" parent="1">
          <mxGeometry x="182.4375" y="650.6666666666666" width="14.125" height="14.125" as="geometry" />
        </mxCell>
        <mxCell id="doQYq3akADXhrJh_Z-OA-557" value="" style="ellipse;whiteSpace=wrap;html=1;aspect=fixed;strokeColor=#000000;fillColor=#FFFFFF;gradientColor=none;container=0;" vertex="1" parent="1">
          <mxGeometry x="210.6875" y="650.6666666666666" width="14.125" height="14.125" as="geometry" />
        </mxCell>
        <mxCell id="doQYq3akADXhrJh_Z-OA-558" value="" style="ellipse;whiteSpace=wrap;html=1;aspect=fixed;strokeColor=#000000;fillColor=#FFFFFF;gradientColor=none;container=0;" vertex="1" parent="1">
          <mxGeometry x="238.9375" y="650.6666666666666" width="14.125" height="14.125" as="geometry" />
        </mxCell>
        <mxCell id="doQYq3akADXhrJh_Z-OA-559" value="" style="ellipse;whiteSpace=wrap;html=1;aspect=fixed;strokeColor=#000000;fillColor=#FFFFFF;gradientColor=none;container=0;" vertex="1" parent="1">
          <mxGeometry x="267.1875" y="650.6666666666666" width="14.125" height="14.125" as="geometry" />
        </mxCell>
        <mxCell id="doQYq3akADXhrJh_Z-OA-1040" value="19" style="text;html=1;strokeColor=none;fillColor=none;align=center;verticalAlign=middle;whiteSpace=wrap;rounded=0;fontColor=#FFFFFF;container=0;" vertex="1" parent="1">
          <mxGeometry x="27.0625" y="650.6666666666666" width="14.125" height="18.205128205128204" as="geometry" />
        </mxCell>
        <mxCell id="doQYq3akADXhrJh_Z-OA-1041" value="20" style="text;html=1;strokeColor=none;fillColor=none;align=center;verticalAlign=middle;whiteSpace=wrap;rounded=0;fontColor=#FFFFFF;container=0;" vertex="1" parent="1">
          <mxGeometry x="27.0625" y="741.6923076923076" width="14.125" height="18.205128205128204" as="geometry" />
        </mxCell>
        <mxCell id="doQYq3akADXhrJh_Z-OA-590" value="" style="rounded=0;whiteSpace=wrap;html=1;gradientColor=none;fillColor=default;strokeColor=#666666;container=0;" vertex="1" parent="1">
          <mxGeometry x="303.135625" y="641.5641025641025" width="254.25000000000003" height="127.43589743589743" as="geometry" />
        </mxCell>
        <mxCell id="doQYq3akADXhrJh_Z-OA-591" value="" style="endArrow=none;html=1;rounded=0;fillColor=#eeeeee;strokeColor=#CCCCCC;" edge="1" parent="1">
          <mxGeometry width="50" height="50" relative="1" as="geometry">
            <mxPoint x="359.635625" y="750.7948717948718" as="sourcePoint" />
            <mxPoint x="359.635625" y="659.7692307692307" as="targetPoint" />
          </mxGeometry>
        </mxCell>
        <mxCell id="doQYq3akADXhrJh_Z-OA-592" value="" style="endArrow=none;html=1;rounded=0;strokeColor=#CCCCCC;" edge="1" parent="1">
          <mxGeometry width="50" height="50" relative="1" as="geometry">
            <mxPoint x="387.885625" y="750.7948717948718" as="sourcePoint" />
            <mxPoint x="387.885625" y="659.7692307692307" as="targetPoint" />
          </mxGeometry>
        </mxCell>
        <mxCell id="doQYq3akADXhrJh_Z-OA-593" value="" style="endArrow=none;html=1;rounded=0;strokeColor=#CCCCCC;" edge="1" parent="1">
          <mxGeometry width="50" height="50" relative="1" as="geometry">
            <mxPoint x="416.135625" y="750.7948717948718" as="sourcePoint" />
            <mxPoint x="416.135625" y="659.7692307692307" as="targetPoint" />
          </mxGeometry>
        </mxCell>
        <mxCell id="doQYq3akADXhrJh_Z-OA-594" value="" style="endArrow=none;html=1;rounded=0;strokeColor=#CCCCCC;" edge="1" parent="1">
          <mxGeometry width="50" height="50" relative="1" as="geometry">
            <mxPoint x="444.385625" y="750.7948717948718" as="sourcePoint" />
            <mxPoint x="444.385625" y="659.7692307692307" as="targetPoint" />
          </mxGeometry>
        </mxCell>
        <mxCell id="doQYq3akADXhrJh_Z-OA-595" value="" style="endArrow=none;html=1;rounded=0;strokeColor=#CCCCCC;" edge="1" parent="1">
          <mxGeometry width="50" height="50" relative="1" as="geometry">
            <mxPoint x="472.635625" y="750.7948717948718" as="sourcePoint" />
            <mxPoint x="472.635625" y="659.7692307692307" as="targetPoint" />
          </mxGeometry>
        </mxCell>
        <mxCell id="doQYq3akADXhrJh_Z-OA-596" value="" style="endArrow=none;html=1;rounded=0;strokeColor=#CCCCCC;" edge="1" parent="1">
          <mxGeometry width="50" height="50" relative="1" as="geometry">
            <mxPoint x="500.885625" y="750.7948717948718" as="sourcePoint" />
            <mxPoint x="500.885625" y="659.7692307692307" as="targetPoint" />
          </mxGeometry>
        </mxCell>
        <mxCell id="doQYq3akADXhrJh_Z-OA-597" value="" style="endArrow=none;html=1;rounded=0;strokeColor=#CCCCCC;" edge="1" parent="1">
          <mxGeometry width="50" height="50" relative="1" as="geometry">
            <mxPoint x="529.135625" y="750.7948717948718" as="sourcePoint" />
            <mxPoint x="529.135625" y="659.7692307692307" as="targetPoint" />
          </mxGeometry>
        </mxCell>
        <mxCell id="doQYq3akADXhrJh_Z-OA-599" value="" style="endArrow=none;html=1;rounded=0;strokeColor=#CCCCCC;" edge="1" parent="1">
          <mxGeometry width="50" height="50" relative="1" as="geometry">
            <mxPoint x="331.385625" y="750.7948717948718" as="sourcePoint" />
            <mxPoint x="331.385625" y="659.7692307692307" as="targetPoint" />
          </mxGeometry>
        </mxCell>
        <mxCell id="doQYq3akADXhrJh_Z-OA-600" value="" style="endArrow=none;html=1;rounded=0;exitX=-0.003;exitY=0.149;exitDx=0;exitDy=0;exitPerimeter=0;" edge="1" parent="1">
          <mxGeometry width="50" height="50" relative="1" as="geometry">
            <mxPoint x="303.13562499999995" y="659.7692307692307" as="sourcePoint" />
            <mxPoint x="557.385625" y="659.7692307692307" as="targetPoint" />
          </mxGeometry>
        </mxCell>
        <mxCell id="doQYq3akADXhrJh_Z-OA-601" value="" style="endArrow=none;html=1;rounded=0;" edge="1" parent="1">
          <mxGeometry width="50" height="50" relative="1" as="geometry">
            <mxPoint x="303.135625" y="677.9743589743589" as="sourcePoint" />
            <mxPoint x="557.385625" y="677.9743589743589" as="targetPoint" />
          </mxGeometry>
        </mxCell>
        <mxCell id="doQYq3akADXhrJh_Z-OA-602" value="" style="endArrow=none;html=1;rounded=0;exitX=0;exitY=0.447;exitDx=0;exitDy=0;exitPerimeter=0;" edge="1" parent="1">
          <mxGeometry width="50" height="50" relative="1" as="geometry">
            <mxPoint x="303.135625" y="696.1794871794872" as="sourcePoint" />
            <mxPoint x="557.385625" y="696.1794871794872" as="targetPoint" />
          </mxGeometry>
        </mxCell>
        <mxCell id="doQYq3akADXhrJh_Z-OA-603" value="" style="endArrow=none;html=1;rounded=0;exitX=0;exitY=0.597;exitDx=0;exitDy=0;exitPerimeter=0;" edge="1" parent="1">
          <mxGeometry width="50" height="50" relative="1" as="geometry">
            <mxPoint x="303.135625" y="714.3846153846155" as="sourcePoint" />
            <mxPoint x="557.385625" y="714.3846153846154" as="targetPoint" />
          </mxGeometry>
        </mxCell>
        <mxCell id="doQYq3akADXhrJh_Z-OA-604" value="" style="endArrow=none;html=1;rounded=0;exitX=0;exitY=0.75;exitDx=0;exitDy=0;" edge="1" parent="1">
          <mxGeometry width="50" height="50" relative="1" as="geometry">
            <mxPoint x="303.135625" y="732.5897435897435" as="sourcePoint" />
            <mxPoint x="557.385625" y="732.5897435897435" as="targetPoint" />
          </mxGeometry>
        </mxCell>
        <mxCell id="doQYq3akADXhrJh_Z-OA-605" value="" style="endArrow=none;html=1;rounded=0;entryX=-0.003;entryY=0.895;entryDx=0;entryDy=0;entryPerimeter=0;" edge="1" parent="1">
          <mxGeometry width="50" height="50" relative="1" as="geometry">
            <mxPoint x="557.385625" y="750.7948717948718" as="sourcePoint" />
            <mxPoint x="302.49999999999994" y="750.7948717948718" as="targetPoint" />
          </mxGeometry>
        </mxCell>
        <mxCell id="doQYq3akADXhrJh_Z-OA-606" value="" style="ellipse;whiteSpace=wrap;html=1;aspect=fixed;strokeColor=#000000;fillColor=#FFFFFF;gradientColor=none;container=0;" vertex="1" parent="1">
          <mxGeometry x="296.073125" y="650.6666666666666" width="14.125" height="14.125" as="geometry" />
        </mxCell>
        <mxCell id="doQYq3akADXhrJh_Z-OA-607" value="" style="ellipse;whiteSpace=wrap;html=1;aspect=fixed;strokeColor=#000000;fillColor=#FFFFFF;gradientColor=none;container=0;" vertex="1" parent="1">
          <mxGeometry x="325.735625" y="650.6666666666666" width="14.125" height="14.125" as="geometry" />
        </mxCell>
        <mxCell id="doQYq3akADXhrJh_Z-OA-608" value="" style="ellipse;whiteSpace=wrap;html=1;aspect=fixed;strokeColor=#000000;fillColor=#FFFFFF;gradientColor=none;container=0;" vertex="1" parent="1">
          <mxGeometry x="352.573125" y="650.6666666666666" width="14.125" height="14.125" as="geometry" />
        </mxCell>
        <mxCell id="doQYq3akADXhrJh_Z-OA-609" value="" style="ellipse;whiteSpace=wrap;html=1;aspect=fixed;strokeColor=#000000;fillColor=#FFFFFF;gradientColor=none;container=0;" vertex="1" parent="1">
          <mxGeometry x="380.823125" y="650.6666666666666" width="14.125" height="14.125" as="geometry" />
        </mxCell>
        <mxCell id="doQYq3akADXhrJh_Z-OA-610" value="" style="ellipse;whiteSpace=wrap;html=1;aspect=fixed;strokeColor=#000000;fillColor=#FFFFFF;gradientColor=none;container=0;" vertex="1" parent="1">
          <mxGeometry x="409.073125" y="668.8717948717948" width="14.125" height="14.125" as="geometry" />
        </mxCell>
        <mxCell id="doQYq3akADXhrJh_Z-OA-611" value="" style="ellipse;whiteSpace=wrap;html=1;aspect=fixed;strokeColor=#000000;fillColor=#FFFFFF;gradientColor=none;container=0;" vertex="1" parent="1">
          <mxGeometry x="437.323125" y="687.0769230769231" width="14.125" height="14.125" as="geometry" />
        </mxCell>
        <mxCell id="doQYq3akADXhrJh_Z-OA-612" value="" style="ellipse;whiteSpace=wrap;html=1;aspect=fixed;strokeColor=#000000;fillColor=#FFFFFF;gradientColor=none;container=0;" vertex="1" parent="1">
          <mxGeometry x="465.573125" y="650.6666666666666" width="14.125" height="14.125" as="geometry" />
        </mxCell>
        <mxCell id="doQYq3akADXhrJh_Z-OA-617" value="" style="rounded=0;whiteSpace=wrap;html=1;strokeColor=#666666;fillColor=#666666;gradientColor=none;container=0;" vertex="1" parent="1">
          <mxGeometry x="500.25000000000006" y="641.5641025641025" width="113" height="127.43589743589743" as="geometry" />
        </mxCell>
        <mxCell id="doQYq3akADXhrJh_Z-OA-618" value="&lt;font color=&quot;#ffffff&quot;&gt;Anastasia&lt;br&gt;Slash&lt;/font&gt;" style="text;html=1;strokeColor=none;fillColor=none;align=center;verticalAlign=middle;whiteSpace=wrap;rounded=0;fontColor=#666666;container=0;" vertex="1" parent="1">
          <mxGeometry x="514.375" y="677.974358974359" width="84.75" height="54.61538461538461" as="geometry" />
        </mxCell>
        <mxCell id="doQYq3akADXhrJh_Z-OA-1049" value="" style="endArrow=none;html=1;rounded=0;strokeColor=#999999;" edge="1" parent="1">
          <mxGeometry width="50" height="50" relative="1" as="geometry">
            <mxPoint x="641.5" y="168.23076923076923" as="sourcePoint" />
            <mxPoint x="641.5" y="77.20512820512818" as="targetPoint" />
          </mxGeometry>
        </mxCell>
        <mxCell id="doQYq3akADXhrJh_Z-OA-1050" value="" style="endArrow=none;html=1;rounded=0;fillColor=#eeeeee;strokeColor=#999999;" edge="1" parent="1">
          <mxGeometry width="50" height="50" relative="1" as="geometry">
            <mxPoint x="669.75" y="168.23076923076923" as="sourcePoint" />
            <mxPoint x="669.75" y="77.20512820512818" as="targetPoint" />
          </mxGeometry>
        </mxCell>
        <mxCell id="doQYq3akADXhrJh_Z-OA-199" value="" style="ellipse;whiteSpace=wrap;html=1;aspect=fixed;strokeColor=#000000;fillColor=#FFFFFF;gradientColor=none;container=0;" vertex="1" parent="1">
          <mxGeometry x="634.4375" y="140.9230769230769" width="14.125" height="14.125" as="geometry" />
        </mxCell>
        <mxCell id="doQYq3akADXhrJh_Z-OA-200" value="" style="ellipse;whiteSpace=wrap;html=1;aspect=fixed;strokeColor=#000000;fillColor=#FFFFFF;gradientColor=none;container=0;" vertex="1" parent="1">
          <mxGeometry x="662.6875" y="104.51282051282051" width="14.125" height="14.125" as="geometry" />
        </mxCell>
      </root>
    </mxGraphModel>
  </diagram>
</mxfile>
